<?xml version="1.0" encoding="UTF-8"?>
<svg version="1.1" xmlns="http://www.w3.org/2000/svg" width="600" height="600">
<path d="M0 0 C0.495 0.99 0.495 0.99 1 2 C3.58624017 3.40270653 6.16584495 4.72182538 8.8125 6 C9.53759766 6.35578125 10.26269531 6.7115625 11.00976562 7.078125 C12.36950665 7.74493304 13.73046559 8.40926735 15.09301758 9.0703125 C15.72232178 9.37710938 16.35162598 9.68390625 17 10 C17.70584229 10.33306152 18.41168457 10.66612305 19.13891602 11.00927734 C21.3978921 12.21181243 22.55021326 13.62147551 24.125 15.625 C25.56168718 17.50450961 25.56168718 17.50450961 27 19 C27.66 19 28.32 19 29 19 C29 19.66 29 20.32 29 21 C29.66 21 30.32 21 31 21 C31.08378906 21.51304688 31.16757812 22.02609375 31.25390625 22.5546875 C32.31172438 26.02167256 34.12363126 29.01092446 35.9375 32.125 C36.47793945 33.07439453 36.47793945 33.07439453 37.02929688 34.04296875 C38.52075784 36.63036512 39.87897973 38.87897973 42 41 C44.34525941 44.51788911 44.45449008 46.83350695 45 51 C45.45962293 52.86634766 45.92035096 54.73257669 46.40893555 56.59155273 C50.68372904 73.03716706 51.21562457 90.0946453 52 107 C52.66 107.33 53.32 107.66 54 108 C54.18691406 109.11503906 54.37382812 110.23007813 54.56640625 111.37890625 C55.56601632 114.99605906 55.56601632 114.99605906 57.79638672 116.04248047 C60.16140822 116.82150375 62.50428535 117.40919892 64.9375 117.9375 C65.76185547 118.14439453 66.58621094 118.35128906 67.43554688 118.56445312 C70.72277584 119.36823535 73.60331697 120 77 120 C77.06058594 118.78183594 77.12117187 117.56367188 77.18359375 116.30859375 C77.26806403 114.68488723 77.35270872 113.06118978 77.4375 111.4375 C77.47681641 110.63763672 77.51613281 109.83777344 77.55664062 109.01367188 C77.80706235 104.29418554 78.07911893 99.64099666 79 95 C79.66 94.67 80.32 94.34 81 94 C82.46617984 89.78247033 83 85.57289718 83 81.125 C83 78 83 78 85 75 C86.44414458 72.36655989 87.37057415 69.93732065 88 67 C88.66 67 89.32 67 90 67 C90.474375 66.05125 90.94875 65.1025 91.4375 64.125 C93.61918699 59.76162601 95.65810587 56.3035543 99.1875 52.875 C101.23167403 51.19497567 101.23167403 51.19497567 101 49 C101.99 48.67 102.98 48.34 104 48 C104.99 47.01 104.99 47.01 106 46 C121.57608542 32.18392423 141.12223945 27.71071775 161.47167969 28.78417969 C174.48357798 29.8948902 190.06574423 33.71049615 201 41 C201.66 41.33 202.32 41.66 203 42 C204.33333333 43 205.66666667 44 207 45 C207.66 45.33 208.32 45.66 209 46 C210.66666667 47.66666667 212.33333333 49.33333333 214 51 C214.99 51.66 215.98 52.32 217 53 C217 53.66 217 54.32 217 55 C217.99 55.33 218.98 55.66 220 56 C220.4640625 56.9590625 220.4640625 56.9590625 220.9375 57.9375 C221.81846676 60.1631441 221.81846676 60.1631441 224 60.9375 C226.76283501 62.4052561 226.94864655 64.12630058 228 67 C228.97850195 68.02104551 229.97980427 69.0206121 231 70 C232.74214123 72.68021728 233.98660921 74.95982762 235 78 C236.18175382 80.52107482 237.44488065 82.66732097 239 85 C239.3721042 86.32303717 239.70630173 87.65737935 240 89 C240.33 89.99 240.66 90.98 241 92 C242.66748583 97.00245748 243.29330574 101.25232388 243.62109375 106.50390625 C243.77321113 109.16852786 243.77321113 109.16852786 246 111 C246.24291992 113.78149414 246.24291992 113.78149414 246.23046875 117.28515625 C246.22853516 118.53748047 246.22660156 119.78980469 246.22460938 121.08007812 C246.21236328 122.39427734 246.20011719 123.70847656 246.1875 125.0625 C246.18685547 126.38056641 246.18621094 127.69863281 246.18554688 129.05664062 C246.14009123 138.85990877 246.14009123 138.85990877 245 140 C244.95907063 142.33297433 244.95758277 144.66705225 245 147 C244.34 147.33 243.68 147.66 243 148 C243 150.64 243 153.28 243 156 C242.34 156 241.68 156 241 156 C240.83564453 156.96099609 240.83564453 156.96099609 240.66796875 157.94140625 C239.67784093 163.34283524 238.50341896 168.0974712 236 173 C235.34 173.33 234.68 173.66 234 174 C233.67 174.66 233.34 175.32 233 176 C232.33333333 177.33333333 231.66666667 178.66666667 231 180 C230.34 180 229.68 180 229 180 C228.67 180.99 228.34 181.98 228 183 C226.35697047 184.68997323 224.68528688 186.35216394 223 188 C221.48517507 189.79836909 219.99670271 191.61353761 218.52734375 193.44921875 C216.82883561 195.17379096 215.20606878 196.03692051 213 197 C213 197.66 213 198.32 213 199 C212.4225 199.103125 211.845 199.20625 211.25 199.3125 C208.651885 200.10636847 207.10454551 201.30278588 205 203 C202.19961549 204.86692301 201.11323048 205.28115561 198 206 C194.69786044 207.04762413 191.39858053 208.10199231 188.10742188 209.18359375 C176.09763728 213.02399791 163.7622131 212.97070255 151.49609375 210.484375 C150.76934448 210.34241699 150.04259521 210.20045898 149.29382324 210.05419922 C147.52809719 209.70846265 145.76387665 209.3550513 144 209 C143.80634509 216.04719993 143.62895082 223.0946743 143.46289062 230.14257812 C143.40446906 232.54045896 143.3423166 234.9382519 143.27636719 237.3359375 C143.182253 240.78108723 143.10153251 244.22632956 143.0234375 247.671875 C142.99124115 248.74491882 142.9590448 249.81796265 142.9258728 250.92352295 C142.89561508 252.42462616 142.89561508 252.42462616 142.86474609 253.95605469 C142.84253998 254.83541687 142.82033386 255.71477905 142.79745483 256.62078857 C143.11467833 260.3470773 144.38412268 262.38412268 147 265 C147.33 265.66 147.66 266.32 148 267 C149.58161526 267.88458547 151.20649159 268.69244754 152.84765625 269.4609375 C153.84603516 269.93273437 154.84441406 270.40453125 155.87304688 270.890625 C156.92556641 271.38046875 157.97808594 271.8703125 159.0625 272.375 C161.11617731 273.34052522 163.16956806 274.30666021 165.22265625 275.2734375 C166.21023926 275.73717773 167.19782227 276.20091797 168.21533203 276.67871094 C171.83918231 278.39818119 175.42123281 280.18867302 179 282 C180.01719116 282.47058838 180.01719116 282.47058838 181.05493164 282.95068359 C183.86566134 284.46700294 185.7839828 286.72566656 188 289 C188.66 289.33 189.32 289.66 190 290 C191.68762851 291.6454378 193.3540349 293.31288577 195 295 C196.84188612 297.05270463 196.84188612 297.05270463 199 298 C199 298.99 199 299.98 199 301 C199.66 301.33 200.32 301.66 201 302 C202.37073786 303.63604196 203.70055256 305.30678061 205 307 C205.515625 307.66 206.03125 308.32 206.5625 309 C208 311 208 311 209.5625 313.6875 C210.7908468 316.11355864 210.7908468 316.11355864 213 317 C213.34022786 318.99883869 213.67329097 320.99890722 214 323 C214.66 323.66 215.32 324.32 216 325 C216.37499923 326.32221952 216.703673 327.65795708 217 329 C217.50139889 330.42366111 218.02224046 331.84062729 218.5625 333.25 C218.83191406 333.95640625 219.10132813 334.6628125 219.37890625 335.390625 C219.58386719 335.92171875 219.78882813 336.4528125 220 337 C220.66 337 221.32 337 222 337 C222 338.98 222 340.96 222 343 C222.66 343 223.32 343 224 343 C224 345.31 224 347.62 224 350 C224.66 350.33 225.32 350.66 226 351 C225.42181583 363.00654777 224.78736811 375.00520067 224 387 C223.34 387 222.68 387 222 387 C222 389.31 222 391.62 222 394 C221.34 394 220.68 394 220 394 C219.87625 395.134375 219.7525 396.26875 219.625 397.4375 C219.315625 399.2009375 219.315625 399.2009375 219 401 C218.34 401.33 217.68 401.66 217 402 C216.67 402.66 216.34 403.32 216 404 C213.510572 407.734142 211.32503398 410.81497282 207.8125 413.625 C206.884375 414.40875 205.95625 415.1925 205 416 C205 416.66 205 417.32 205 418 C204.030625 418.391875 203.06125 418.78375 202.0625 419.1875 C199.13581278 420.43590582 196.38946485 421.86335833 193.625 423.4375 C177.33418056 432.57356766 162.29533357 433.86814629 144.37109375 428.97265625 C139.55687285 427.58361685 136.87232076 426.15293461 133 423 C130.98641129 421.63508416 128.96501617 420.28164021 126.9375 418.9375 C121.49819727 415.26825953 116.67003448 411.19256682 111.95874023 406.63061523 C109.43016321 404.20080041 107.15011792 402.50657814 104 401 C103.25 398.875 103.25 398.875 103 397 C102.34 397 101.68 397 101 397 C100.87625 396.38125 100.7525 395.7625 100.625 395.125 C99.80101443 392.32344905 98.23074874 391.20097471 96.0625 389.3125 C94.17632342 387.19769595 93.40722817 385.86949162 92.375 383.3125 C91.39177364 379.92312274 91.39177364 379.92312274 89 379 C88.6325648 377.34051807 88.30727489 375.67166714 88 374 C87.23723693 371.8022546 86.44264965 369.61542135 85.625 367.4375 C82.36541208 358.44066051 79.91694468 349.53622463 79 340 C78.34 340 77.68 340 77 340 C77.01571045 338.94256592 77.01571045 338.94256592 77.03173828 337.86376953 C77.07374505 334.61755044 77.0994666 331.37138884 77.125 328.125 C77.15013672 326.46210937 77.15013672 326.46210937 77.17578125 324.765625 C77.3101442 314.70779284 77.3101442 314.70779284 75 305 C72.57309556 302.69008013 70.0246879 301.40449853 67 300 C65.72576172 299.30390625 65.72576172 299.30390625 64.42578125 298.59375 C58.56038078 295.41312233 58.56038078 295.41312233 52 295 C49.85577626 297.14422374 49.98891257 301.41248027 49.5 304.375 C49.24169458 305.92483252 48.98135591 307.47432786 48.71875 309.0234375 C48.60466797 309.71356934 48.49058594 310.40370117 48.37304688 311.11474609 C47.74811461 314.27294435 46.79956356 316.30065466 45 319 C44.67 319.680625 44.34 320.36125 44 321.0625 C43 323 43 323 41 325 C40.67 325.66 40.34 326.32 40 327 C37.1507313 330.08029049 34.76729975 332.22715306 31 334 C30.09765625 334.474375 29.1953125 334.94875 28.265625 335.4375 C27.27046875 335.953125 26.2753125 336.46875 25.25 337 C24.26515625 337.515625 23.2803125 338.03125 22.265625 338.5625 C15.23182656 341.65871749 8.58365799 342.34541814 1 342.625 C0.12988281 342.66367187 -0.74023438 342.70234375 -1.63671875 342.7421875 C-3.75750486 342.83540887 -5.87872185 342.91874136 -8 343 C-8 342.34 -8 341.68 -8 341 C-8.83144531 340.69255859 -8.83144531 340.69255859 -9.6796875 340.37890625 C-10.40414062 340.10949219 -11.12859375 339.84007812 -11.875 339.5625 C-12.95394531 339.16224609 -12.95394531 339.16224609 -14.0546875 338.75390625 C-17.58274638 337.38660632 -20.05858747 335.36747838 -23 333 C-25.31856917 331.45428722 -27.50638429 330.20381448 -30 329 C-30 328.34 -30 327.68 -30 327 C-30.9590625 326.62875 -30.9590625 326.62875 -31.9375 326.25 C-34 325 -34 325 -34.5625 322.9375 C-34.706875 322.298125 -34.85125 321.65875 -35 321 C-35.99 320.67 -36.98 320.34 -38 320 C-38.144375 319.401875 -38.28875 318.80375 -38.4375 318.1875 C-39.19737197 315.23244234 -40.74035659 313.98574724 -43 312 C-43.66 311.67 -44.32 311.34 -45 311 C-45.625 308.4375 -45.625 308.4375 -46 306 C-46.66 306 -47.32 306 -48 306 C-52.12589928 299.07913669 -52.12589928 299.07913669 -53 295 C-53.99 293.515 -53.99 293.515 -55 292 C-55.23428428 290.12572575 -55.46268814 288.25040848 -55.65234375 286.37109375 C-56.17408946 282.81267077 -57.23248891 279.43859883 -58.28125 276.00390625 C-61.64244102 261.95631985 -62.60079817 242.20159634 -56 229 C-55.34 228.01 -54.68 227.02 -54 226 C-54 225.34 -54 224.68 -54 224 C-53.01 223.4121875 -53.01 223.4121875 -52 222.8125 C-47.94362982 220.36177635 -44.30516965 217.40358661 -41 214 C-41 213.34 -41 212.68 -41 212 C-40.278125 211.896875 -39.55625 211.79375 -38.8125 211.6875 C-35.7403228 210.93652335 -33.65977458 209.67985763 -31 208 C-28.29387929 207.09795976 -26.1469392 206.733784 -23.33203125 206.46484375 C-22.52741455 206.38613037 -21.72279785 206.30741699 -20.89379883 206.22631836 C-19.87697021 206.1310083 -18.8601416 206.03569824 -17.8125 205.9375 C-14.574375 205.628125 -11.33625 205.31875 -8 205 C-8 192.79 -8 180.58 -8 168 C-8.66 167.67 -9.32 167.34 -10 167 C-9.979375 165.88625 -9.95875 164.7725 -9.9375 163.625 C-9.73619282 160.16784079 -9.73619282 160.16784079 -11 158 C-11.66 157.67 -12.32 157.34 -13 157 C-13.52464844 156.57976562 -14.04929688 156.15953125 -14.58984375 155.7265625 C-18.05609897 153.24344288 -21.78923631 151.34919704 -25.5625 149.375 C-26.71395508 148.76398438 -26.71395508 148.76398438 -27.88867188 148.140625 C-30.91894505 146.5449101 -33.7430617 145.0856461 -37 144 C-37.99 143.01 -37.99 143.01 -39 142 C-39.66 141.67 -40.32 141.34 -41 141 C-41.94492706 139.9412263 -42.85764719 138.85344703 -43.75 137.75 C-45.79163693 135.30705852 -47.83502424 133.18739007 -50.3125 131.1875 C-53 129 -53 129 -54 127 C-54.66 126.67 -55.32 126.34 -56 126 C-56 125.01 -56 124.02 -56 123 C-57.485 122.01 -57.485 122.01 -59 121 C-59.35919668 119.33871537 -59.68911632 117.67099977 -60 116 C-60.98189187 114.32260138 -61.98133771 112.65532623 -63 111 C-63.3485528 109.67056409 -63.6778111 108.33607006 -64 107 C-65.52825475 102.26697778 -65.52825475 102.26697778 -67.09570312 97.546875 C-70.53618195 86.88449017 -71.39545549 75.87256391 -72.125 64.75 C-72.21136719 63.53570312 -72.29773438 62.32140625 -72.38671875 61.0703125 C-72.80108075 55.03246625 -73.10538003 49.05182434 -73 43 C-72.34 43 -71.68 43 -71 43 C-70.79503906 42.08476562 -70.59007812 41.16953125 -70.37890625 40.2265625 C-70.10949219 39.03804687 -69.84007812 37.84953125 -69.5625 36.625 C-69.29566406 35.44164062 -69.02882812 34.25828125 -68.75390625 33.0390625 C-67.80029178 29.19495859 -66.02850301 26.38083836 -64 23 C-63.67 22.34 -63.34 21.68 -63 21 C-62.34 20.01 -61.68 19.02 -61 18 C-60.34 18 -59.68 18 -59 18 C-58.92394531 17.40960938 -58.84789062 16.81921875 -58.76953125 16.2109375 C-56.65079294 10.12359798 -47.32331396 6.51159988 -41.9375 3.6875 C-29.09693944 -2.42317286 -13.90806718 -2.62322975 0 0 Z M84 78 C85 80 85 80 85 80 Z M150 102 C148.75281599 104.8507063 148.44855629 107.93093063 148 111 C147.88785156 111.75539063 147.77570313 112.51078125 147.66015625 113.2890625 C145.71170341 126.68789726 145.71170341 126.68789726 149 139 C149.27328125 139.68578125 149.5465625 140.3715625 149.828125 141.078125 C151.81594975 144.33815759 154.9240251 144.52854296 158.4453125 145.47265625 C161.35274249 146.07281382 164.04001936 146.23368268 167 146 C167.144375 145.401875 167.28875 144.80375 167.4375 144.1875 C167.8872439 142.43849596 168.42892341 140.71322977 169 139 C169.53422135 130.43191148 169.36655383 122.99556534 166 115 C165.34 115 164.68 115 164 115 C163.896875 114.2575 163.79375 113.515 163.6875 112.75 C162.92549203 109.70196812 162.01934937 108.37994748 160 106 C159.57976562 105.47792969 159.15953125 104.95585937 158.7265625 104.41796875 C157.51365017 102.92110874 156.25925703 101.45808709 155 100 C153.0122562 100 151.64625228 100.97708596 150 102 Z M79 103 C79 108.61 79 114.22 79 120 C79.33 120 79.66 120 80 120 C80 114.39 80 108.78 80 103 C79.67 103 79.34 103 79 103 Z M238 162 C239 164 239 164 239 164 Z M236 167 C237 169 237 169 237 169 Z M52 179 C51.97524777 184.88988947 51.95711518 190.77974854 51.94506836 196.66967773 C51.94004522 198.67261279 51.93322555 200.67554419 51.92456055 202.6784668 C51.91240655 205.56039331 51.90675143 208.44227125 51.90234375 211.32421875 C51.89718246 212.21711105 51.89202118 213.11000336 51.88670349 214.029953 C51.886333 218.1527264 51.95231582 221.97964792 53 226 C53.66 226 54.32 226 55 226 C55 226.99 55 227.98 55 229 C57.34677981 230.18396099 59.70061349 231.34688293 62.0625 232.5 C62.71927734 232.83386719 63.37605469 233.16773438 64.05273438 233.51171875 C65.0340332 233.98544922 65.0340332 233.98544922 66.03515625 234.46875 C66.6269165 234.76201172 67.21867676 235.05527344 67.82836914 235.35742188 C70.90304604 236.26720823 73.81536216 236.09371504 77 236 C77.19265169 229.96802226 77.37131287 223.93585191 77.53710938 217.90307617 C77.59545175 215.85153132 77.6575933 213.8000908 77.72363281 211.7487793 C77.81798045 208.79755654 77.89858863 205.84622644 77.9765625 202.89453125 C78.02485703 201.52238213 78.02485703 201.52238213 78.0741272 200.12251282 C78.17927621 195.63693374 78.24105694 192.03579116 76 188 C72.60245018 184.55236345 67.91914095 183.34420007 63.4375 181.8125 C62.66986328 181.53986328 61.90222656 181.26722656 61.11132812 180.98632812 C56.66682319 179.43182075 56.66682319 179.43182075 52 179 Z M-7 188 C-7 193.61 -7 199.22 -7 205 C-6.67 205 -6.34 205 -6 205 C-6 199.39 -6 193.78 -6 188 C-6.33 188 -6.66 188 -7 188 Z M78 203 C78 214.22 78 225.44 78 237 C78.33 237 78.66 237 79 237 C79 225.78 79 214.56 79 203 C78.67 203 78.34 203 78 203 Z M-10 206 C-6 207 -6 207 -6 207 Z M141 338 C142 341 142 341 142 341 Z M142 341 C142 342.65 142 344.3 142 346 C142.33 346 142.66 346 143 346 C143 344.35 143 342.7 143 341 C142.67 341 142.34 341 142 341 Z M145 341 C143.62289551 345.54444483 144.34845077 348.59586873 146 353 C147.96509909 355.7700997 147.96509909 355.7700997 150 358 C150.33 358.66 150.66 359.32 151 360 C151.66 360 152.32 360 153 360 C153.49515764 354.18506656 153.49515764 354.18506656 151.75 348.8125 C151.1725 348.214375 150.595 347.61625 150 347 C149.29875 345.9275 148.5975 344.855 147.875 343.75 C147.25625 342.8425 146.6375 341.935 146 341 C145.67 341 145.34 341 145 341 Z M143 346 C144 348 144 348 144 348 Z M154 356 C155 360 155 360 155 360 Z " fill="#EFEFEF" transform="translate(235,91)"/>
<path d="M0 0 C5.27162181 0.70878949 10.25847023 1.88533288 15.3671875 3.375 C17.2392688 3.91833984 17.2392688 3.91833984 19.14916992 4.47265625 C20.09381104 4.74980469 21.03845215 5.02695312 22.01171875 5.3125 C22.00505692 6.27636627 22.00505692 6.27636627 21.9982605 7.25970459 C21.95404006 13.94297056 21.92385763 20.62619502 21.90185547 27.30957031 C21.89179314 29.80437915 21.87814196 32.29917618 21.86083984 34.79394531 C21.83660207 38.37828484 21.82523793 41.96246853 21.81640625 45.546875 C21.80608368 46.66366638 21.79576111 47.78045776 21.78512573 48.93109131 C21.78497467 49.97186829 21.78482361 51.01264526 21.78466797 52.08496094 C21.77800613 53.45729889 21.77800613 53.45729889 21.77120972 54.85736084 C22.13943517 58.61624145 23.36548032 60.66626157 26.01171875 63.3125 C26.34171875 63.9725 26.67171875 64.6325 27.01171875 65.3125 C28.59333401 66.19708547 30.21821034 67.00494754 31.859375 67.7734375 C32.85775391 68.24523437 33.85613281 68.71703125 34.88476562 69.203125 C35.93728516 69.69296875 36.98980469 70.1828125 38.07421875 70.6875 C40.12789606 71.65302522 42.18128681 72.61916021 44.234375 73.5859375 C45.22195801 74.04967773 46.20954102 74.51341797 47.22705078 74.99121094 C50.85090106 76.71068119 54.43295156 78.50117302 58.01171875 80.3125 C58.68984619 80.62622559 59.36797363 80.93995117 60.06665039 81.26318359 C62.87738009 82.77950294 64.79570155 85.03816656 67.01171875 87.3125 C67.67171875 87.6425 68.33171875 87.9725 69.01171875 88.3125 C70.69934726 89.9579378 72.36575365 91.62538577 74.01171875 93.3125 C75.85360487 95.36520463 75.85360487 95.36520463 78.01171875 96.3125 C78.01171875 97.3025 78.01171875 98.2925 78.01171875 99.3125 C78.67171875 99.6425 79.33171875 99.9725 80.01171875 100.3125 C81.38245661 101.94854196 82.71227131 103.61928061 84.01171875 105.3125 C84.52734375 105.9725 85.04296875 106.6325 85.57421875 107.3125 C87.01171875 109.3125 87.01171875 109.3125 88.57421875 112 C89.80256555 114.42605864 89.80256555 114.42605864 92.01171875 115.3125 C92.35194661 117.31133869 92.68500972 119.31140722 93.01171875 121.3125 C93.67171875 121.9725 94.33171875 122.6325 95.01171875 123.3125 C95.38671798 124.63471952 95.71539175 125.97045708 96.01171875 127.3125 C96.51311764 128.73616111 97.03395921 130.15312729 97.57421875 131.5625 C97.84363281 132.26890625 98.11304688 132.9753125 98.390625 133.703125 C98.59558594 134.23421875 98.80054688 134.7653125 99.01171875 135.3125 C99.67171875 135.3125 100.33171875 135.3125 101.01171875 135.3125 C101.01171875 137.2925 101.01171875 139.2725 101.01171875 141.3125 C101.67171875 141.3125 102.33171875 141.3125 103.01171875 141.3125 C103.01171875 143.6225 103.01171875 145.9325 103.01171875 148.3125 C103.67171875 148.6425 104.33171875 148.9725 105.01171875 149.3125 C104.43353458 161.31904777 103.79908686 173.31770067 103.01171875 185.3125 C102.35171875 185.3125 101.69171875 185.3125 101.01171875 185.3125 C101.01171875 187.6225 101.01171875 189.9325 101.01171875 192.3125 C100.35171875 192.3125 99.69171875 192.3125 99.01171875 192.3125 C98.82609375 194.0140625 98.82609375 194.0140625 98.63671875 195.75 C98.43046875 196.925625 98.22421875 198.10125 98.01171875 199.3125 C97.35171875 199.6425 96.69171875 199.9725 96.01171875 200.3125 C95.68171875 200.9725 95.35171875 201.6325 95.01171875 202.3125 C92.52229075 206.046642 90.33675273 209.12747282 86.82421875 211.9375 C85.89609375 212.72125 84.96796875 213.505 84.01171875 214.3125 C84.01171875 214.9725 84.01171875 215.6325 84.01171875 216.3125 C82.55765625 216.9003125 82.55765625 216.9003125 81.07421875 217.5 C78.14753153 218.74840582 75.4011836 220.17585833 72.63671875 221.75 C59.85014131 228.92085086 45.95168484 232.93965212 31.26171875 229.3125 C30.18921875 228.9825 29.11671875 228.6525 28.01171875 228.3125 C31.48871765 227.3083667 34.54158387 227.36135472 38.15551758 227.53051758 C48.96926637 227.96414319 56.37626762 225.86882219 64.94921875 218.9375 C65.62984375 218.07125 66.31046875 217.205 67.01171875 216.3125 C67.42679687 215.80847656 67.841875 215.30445313 68.26953125 214.78515625 C78.06831463 201.37783887 77.18392706 182.25904848 75.64453125 166.5703125 C72.63143665 149.35852555 64.07364006 130.31989306 52.51171875 117.1875 C50.01171875 114.3125 50.01171875 114.3125 50.01171875 111.3125 C49.41746094 111.04953125 48.82320313 110.7865625 48.2109375 110.515625 C45.91189275 109.25788827 44.58141507 107.98890782 42.82421875 106.0625 C38.33448517 101.43845815 33.15759096 98.20420388 27.66015625 94.8984375 C26.56574219 94.23714844 26.56574219 94.23714844 25.44921875 93.5625 C24.78792969 93.17578125 24.12664062 92.7890625 23.4453125 92.390625 C22.97222656 92.03484375 22.49914062 91.6790625 22.01171875 91.3125 C22.01171875 90.6525 22.01171875 89.9925 22.01171875 89.3125 C21.02171875 89.3125 20.03171875 89.3125 19.01171875 89.3125 C19.01171875 88.6525 19.01171875 87.9925 19.01171875 87.3125 C17.97724609 87.07466797 17.97724609 87.07466797 16.921875 86.83203125 C8.60235171 84.76641573 0.68143479 82.19967365 -4.91244507 75.32450867 C-7.19293375 71.05958148 -6.6085986 66.15587394 -6.51171875 61.44140625 C-6.50701569 60.28688461 -6.50231262 59.13236298 -6.49746704 57.94285583 C-6.47616234 54.25295958 -6.41967586 50.56450888 -6.36328125 46.875 C-6.34676218 44.42774821 -6.33241721 41.98048073 -6.3203125 39.53320312 C-6.25459753 29.80236377 -6.14547819 20.05992915 -5.65234375 10.33984375 C-5.59771973 9.242771 -5.5430957 8.14569824 -5.48681641 7.01538086 C-4.84398525 3.53017825 -3.76211281 0.59129474 0 0 Z " fill="#CECECE" transform="translate(355.98828125,292.6875)"/>
<path d="M0 0 C1.12664062 0.09925781 2.25328125 0.19851562 3.4140625 0.30078125 C6.375 0.6875 6.375 0.6875 9.375 1.6875 C9.18164062 2.44546875 8.98828125 3.2034375 8.7890625 3.984375 C6.41005088 14.39549516 5.67239261 24.74448634 5.10986328 35.40136719 C5.04138184 36.58633789 4.97290039 37.77130859 4.90234375 38.9921875 C4.82101196 40.6006958 4.82101196 40.6006958 4.73803711 42.24169922 C4.61823486 43.04881348 4.49843262 43.85592773 4.375 44.6875 C3.385 45.1825 3.385 45.1825 2.375 45.6875 C2.87 46.1825 2.87 46.1825 3.375 46.6875 C4.365 46.1925 4.365 46.1925 5.375 45.6875 C5.375 46.6775 5.375 47.6675 5.375 48.6875 C6.44427734 48.97753906 6.44427734 48.97753906 7.53515625 49.2734375 C12.82513328 50.71162775 18.10836033 52.16602632 23.375 53.6875 C23.045 55.0075 22.715 56.3275 22.375 57.6875 C21.715 57.6875 21.055 57.6875 20.375 57.6875 C20.375 58.3475 20.375 59.0075 20.375 59.6875 C14.89880952 64.6875 14.89880952 64.6875 12.375 64.6875 C11.385 65.0175 10.395 65.3475 9.375 65.6875 C7.64704648 65.75552967 5.91664635 65.77245645 4.1875 65.75 C2.83591797 65.73646484 2.83591797 65.73646484 1.45703125 65.72265625 C0.76996094 65.71105469 0.08289063 65.69945312 -0.625 65.6875 C-0.625 65.0275 -0.625 64.3675 -0.625 63.6875 C-1.38296875 64.00074219 -1.38296875 64.00074219 -2.15625 64.3203125 C-5.76488268 64.85703951 -8.74608319 63.70411461 -12.125 62.5625 C-12.78886719 62.36140625 -13.45273437 62.1603125 -14.13671875 61.953125 C-18.69377125 60.44320341 -21.01473082 58.69247182 -23.625 54.6875 C-25.67072601 50.59604798 -24.80991648 45.30782103 -24.8125 40.8125 C-24.82474609 39.7296875 -24.83699219 38.646875 -24.84960938 37.53125 C-24.87086567 25.65606872 -24.01040324 15.33971018 -16.625 5.6875 C-11.50794806 0.6952542 -7.06699452 -0.67420752 0 0 Z " fill="#C2C2C2" transform="translate(377.625,185.3125)"/>
<path d="M0 0 C7.5653604 1.01719131 14.73407092 3.05789729 22.01171875 5.3125 C22.12178387 14.50905237 21.92895582 23.56574387 21.19921875 32.7421875 C20.98369615 36.33259814 21.08998512 39.85321734 21.26171875 43.4453125 C21.30103516 44.51716797 21.34035156 45.58902344 21.38085938 46.69335938 C21.46659876 48.81892819 21.58899949 50.94340618 21.75195312 53.06445312 C21.85598313 56.05384379 21.83121104 58.43250512 21.01171875 61.3125 C17.14332199 65.42621721 11.86123327 67.69818545 6.57421875 69.5 C2.5897116 70.85555951 2.5897116 70.85555951 0.01171875 74.3125 C-2.55078125 74.5625 -2.55078125 74.5625 -4.98828125 74.3125 C-6.63692649 72.66385476 -6.11569527 70.74987424 -6.11767578 68.47998047 C-6.12082794 67.44735077 -6.1239801 66.41472107 -6.12722778 65.35079956 C-6.12520355 64.22183258 -6.12317932 63.0928656 -6.12109375 61.9296875 C-6.12205048 60.76809113 -6.1230072 59.60649475 -6.12399292 58.40969849 C-6.12467572 55.93638048 -6.12281456 53.4630607 -6.11865234 50.98974609 C-6.1133727 47.25223597 -6.11855859 43.51484977 -6.125 39.77734375 C-6.13428906 19.26743356 -6.13428906 19.26743356 -5.66796875 10.3203125 C-5.61108887 9.22605957 -5.55420898 8.13180664 -5.49560547 7.00439453 C-4.84026829 3.52713384 -3.75492865 0.5901656 0 0 Z " fill="#A6A6A6" transform="translate(355.98828125,292.6875)"/>
<path d="M0 0 C4.34941621 0.36245135 7.85756164 1.781794 12 3.25 C15.96 4.57 19.92 5.89 24 7.25 C24.33 23.75 24.66 40.25 25 57.25 C23.02 57.745 23.02 57.745 21 58.25 C21 58.91 21 59.57 21 60.25 C20.20335937 60.56453125 19.40671875 60.8790625 18.5859375 61.203125 C9.04577364 65.02088372 9.04577364 65.02088372 1 71.25 C-5.00586879 64.14867413 -3.14805617 52.87076056 -3.1328125 44.05859375 C-3.13376923 42.83213638 -3.13472595 41.60567902 -3.13571167 40.34205627 C-3.13638836 37.76962228 -3.13456993 35.19718652 -3.13037109 32.62475586 C-3.12497397 28.6684188 -3.13035454 24.71219313 -3.13671875 20.75585938 C-3.13605869 18.25260392 -3.13477903 15.74934852 -3.1328125 13.24609375 C-3.13483673 12.05769394 -3.13686096 10.86929413 -3.13894653 9.6448822 C-3.13579437 8.55607254 -3.13264221 7.46726288 -3.12939453 6.34545898 C-3.12859894 5.38300766 -3.12780334 4.42055634 -3.12698364 3.42893982 C-2.96178455 0.59425284 -2.80269679 0.3503371 0 0 Z " fill="#B2B2B2" transform="translate(262,259.75)"/>
<path d="M0 0 C3.151581 1.5757905 5.11908268 3.67603533 7.5 6.25 C8.16 6.91 8.82 7.57 9.5 8.25 C9.73828125 10.54296875 9.73828125 10.54296875 9.8125 13.4375 C10.21700758 19.72644809 11.77226837 31.52226837 16.5 36.25 C16.79283624 38.841157 17.01587694 41.40048269 17.1875 44 C17.24744141 44.71671875 17.30738281 45.4334375 17.36914062 46.171875 C17.65266843 50.39760447 17.44599232 53.4623981 15.5 57.25 C7.63834816 58.16414556 -0.28641838 55.17280133 -6.71875 50.7109375 C-15.35997602 42.71401342 -18.36614877 31.69582371 -18.88427734 20.31958008 C-19.06254904 13.17808152 -18.56617054 7.65867222 -13.5 2.25 C-13.01144531 1.70988281 -12.52289063 1.16976562 -12.01953125 0.61328125 C-8.13329443 -2.87334253 -4.4945562 -1.34836686 0 0 Z " fill="#C5C5C5" transform="translate(209.5,145.75)"/>
<path d="M0 0 C4.52133358 -0.37958957 7.44824611 0.86709013 11.5 2.8125 C13.15515625 3.59560547 13.15515625 3.59560547 14.84375 4.39453125 C15.8853125 4.92433594 16.926875 5.45414062 18 6 C19.42505859 6.65355469 19.42505859 6.65355469 20.87890625 7.3203125 C23 9 23 9 23.55859375 11.78515625 C22.85930599 30.71104101 22.85930599 30.71104101 18 38 C17.67 38.680625 17.34 39.36125 17 40.0625 C16 42 16 42 14 44 C13.505 44.99 13.505 44.99 13 46 C10.1507313 49.08029049 7.76729975 51.22715306 4 53 C3.09765625 53.474375 2.1953125 53.94875 1.265625 54.4375 C0.27046875 54.953125 -0.7246875 55.46875 -1.75 56 C-2.73484375 56.515625 -3.7196875 57.03125 -4.734375 57.5625 C-11.76817344 60.65871749 -18.41634201 61.34541814 -26 61.625 C-27.30517578 61.68300781 -27.30517578 61.68300781 -28.63671875 61.7421875 C-30.75750486 61.83540887 -32.87872185 61.91874136 -35 62 C-35 61.34 -35 60.68 -35 60 C-35.55429688 59.79503906 -36.10859375 59.59007812 -36.6796875 59.37890625 C-37.40414062 59.10949219 -38.12859375 58.84007812 -38.875 58.5625 C-39.59429687 58.29566406 -40.31359375 58.02882813 -41.0546875 57.75390625 C-43 57 -43 57 -45 56 C-45 55.34 -45 54.68 -45 54 C-39 56 -39 56 -36.2265625 57.046875 C-29.52455443 59.02664494 -21.86910398 59.25837894 -15.4375 56.4375 C-2.9028362 43.9028362 -3.07172559 25.00506807 -2.34375 8.20703125 C-2.01115936 5.10411176 -1.31355863 2.81249851 0 0 Z " fill="#B4B4B4" transform="translate(262,372)"/>
<path d="M0 0 C3.13106246 1.09512518 6.05558735 2.47892376 9 4 C9.66 4.33 10.32 4.66 11 5 C11.72009682 7.22734399 12.35207413 9.48353199 12.9375 11.75 C14.26706176 16.91054308 14.26706176 16.91054308 16.61328125 21.6484375 C18.94490209 25.602341 18.27242916 29.54333844 18 34 C17.9071875 35.85625 17.9071875 35.85625 17.8125 37.75 C16.75124094 41.99503625 15.22469718 44.05571127 12 47 C7.84980055 48.35824709 5.94932938 48.454887 2 46.5625 C-5.68167155 40.00107222 -10.79273736 32.62178791 -14 23 C-14.17431213 20.37960286 -14.27684435 17.80937916 -14.3125 15.1875 C-14.35600586 14.13852539 -14.35600586 14.13852539 -14.40039062 13.06835938 C-14.46280518 7.93596216 -13.36506524 5.0767859 -10 1 C-6.76579595 -0.61710203 -3.50616503 -0.45240839 0 0 Z " fill="#C7C7C7" transform="translate(215,347)"/>
<path d="M0 0 C0.33 0 0.66 0 1 0 C1.495 14.355 1.495 14.355 2 29 C2.66 28.01 3.32 27.02 4 26 C3.90976562 26.64066406 3.81953125 27.28132813 3.7265625 27.94140625 C3.60435664 31.09525747 3.76701223 33.07059113 5 36 C10.46976883 40.04194606 17.02536374 43.61227723 24 43 C24 43.66 24 44.32 24 45 C24.99 45.495 24.99 45.495 26 46 C26 46.66 26 47.32 26 48 C26.99 48.33 27.98 48.66 29 49 C29.0272616 51.04159095 29.04651345 53.08328963 29.0625 55.125 C29.07410156 56.26195312 29.08570313 57.39890625 29.09765625 58.5703125 C29.005327 61.8129156 28.61389906 64.81932612 28 68 C20.23133125 68.75423968 14.52337939 66.12087838 7.5 63 C6.35611816 62.50395264 5.21223633 62.00790527 4.03369141 61.49682617 C-4.79856602 57.629834 -13.47169634 53.49603924 -22 49 C-21.796875 47.1953125 -21.796875 47.1953125 -21 45 C-18.890625 43.3671875 -18.890625 43.3671875 -16.25 41.875 C-15.38890625 41.37742187 -14.5278125 40.87984375 -13.640625 40.3671875 C-7.13714286 37 -7.13714286 37 -3 37 C-3 36.34 -3 35.68 -3 35 C-2.34 35 -1.68 35 -1 35 C0.18817968 31.26689567 0.11362739 27.72508355 0.09765625 23.828125 C0.0962413 23.1457074 0.09482635 22.46328979 0.09336853 21.76019287 C0.08779084 19.59008316 0.07524254 17.4200783 0.0625 15.25 C0.05748211 13.77474108 0.05291971 12.29948053 0.04882812 10.82421875 C0.03782875 7.21611202 0.02057953 3.60806625 0 0 Z " fill="#E0E0E0" transform="translate(286,283)"/>
<path d="M0 0 C0.495 1.485 0.495 1.485 1 3 C-6.56521739 2.08695652 -6.56521739 2.08695652 -9.8125 1.4375 C-24.5717251 -0.58827599 -37.82894867 2.33014449 -49.921875 11.125 C-60.14991518 19.71429341 -66.62693286 30.83944065 -69 44 C-69.4346005 49.31941059 -69.48464911 54.60593575 -69.4375 59.9375 C-69.43445862 60.66444061 -69.43141724 61.39138123 -69.42828369 62.14035034 C-69.30215501 82.55441737 -65.8663046 102.84481412 -54.78515625 120.3984375 C-54.52605469 120.92695313 -54.26695312 121.45546875 -54 122 C-54.33 122.66 -54.66 123.32 -55 124 C-56.9375 122.8125 -56.9375 122.8125 -59 121 C-59.39171753 119.34608154 -59.72057545 117.67654729 -60 116 C-60.98189187 114.32260138 -61.98133771 112.65532623 -63 111 C-63.3485528 109.67056409 -63.6778111 108.33607006 -64 107 C-65.52825475 102.26697778 -65.52825475 102.26697778 -67.09570312 97.546875 C-70.53618195 86.88449017 -71.39545549 75.87256391 -72.125 64.75 C-72.21136719 63.53570312 -72.29773438 62.32140625 -72.38671875 61.0703125 C-72.80108075 55.03246625 -73.10538003 49.05182434 -73 43 C-72.34 43 -71.68 43 -71 43 C-70.79503906 42.08476562 -70.59007812 41.16953125 -70.37890625 40.2265625 C-70.10949219 39.03804687 -69.84007812 37.84953125 -69.5625 36.625 C-69.29566406 35.44164062 -69.02882812 34.25828125 -68.75390625 33.0390625 C-67.80029178 29.19495859 -66.02850301 26.38083836 -64 23 C-63.67 22.34 -63.34 21.68 -63 21 C-62.34 20.01 -61.68 19.02 -61 18 C-60.34 18 -59.68 18 -59 18 C-58.92394531 17.40960938 -58.84789062 16.81921875 -58.76953125 16.2109375 C-56.65079294 10.12359798 -47.32331396 6.51159988 -41.9375 3.6875 C-28.47549318 -2.71891188 -14.56291852 -1.51866562 0 0 Z " fill="#FDFDFD" transform="translate(235,91)"/>
<path d="M0 0 C-2 1 -2 1 -5.23828125 0.07421875 C-6.5975136 -0.38460027 -7.95551328 -0.84708136 -9.3125 -1.3125 C-29.32993384 -7.82516706 -49.72971405 -8.13373523 -69.1953125 0.56640625 C-86.10625812 9.21030185 -98.58124564 24.5029175 -104.9375 42.26953125 C-107.1566599 50.06106694 -108.57777422 58.03076838 -110 66 C-110.33 66 -110.66 66 -111 66 C-111.17906993 60.35929726 -110.81228112 55.60156113 -109.4375 50.140625 C-108.87067819 47.73139278 -108.87067819 47.73139278 -109 44.125 C-109 41 -109 41 -107 38 C-105.55585542 35.36655989 -104.62942585 32.93732065 -104 30 C-103.34 30 -102.68 30 -102 30 C-101.525625 29.05125 -101.05125 28.1025 -100.5625 27.125 C-98.38081301 22.76162601 -96.34189413 19.3035543 -92.8125 15.875 C-90.76832597 14.19497567 -90.76832597 14.19497567 -91 12 C-90.01 11.67 -89.02 11.34 -88 11 C-87.34 10.34 -86.68 9.68 -86 9 C-62.51044006 -11.83537238 -27.60424552 -13.03919135 0 0 Z M-108 41 C-107 43 -107 43 -107 43 Z " fill="#FDFDFD" transform="translate(427,128)"/>
<path d="M0 0 C2.14593645 3.21890467 3.22567573 6.16435827 4.5 9.8125 C4.9228125 11.01519531 5.345625 12.21789062 5.78125 13.45703125 C6.1834375 14.62621094 6.585625 15.79539063 7 17 C7.36996094 17.98226562 7.73992187 18.96453125 8.12109375 19.9765625 C9.16059059 23.55243161 9.38622276 26.84567563 9.5625 30.5625 C9.77287841 34.82588294 10.10479155 38.82963867 11 43 C11.1779217 47.62596415 10.84513779 52.07856798 10.28125 56.66015625 C10.09032172 58.24857346 9.92447935 59.84016719 9.78125 61.43359375 C9.7090625 62.21863281 9.636875 63.00367188 9.5625 63.8125 C9.50191406 64.52019531 9.44132812 65.22789062 9.37890625 65.95703125 C8.95370885 68.24959042 8.08247161 69.94629893 7 72 C6.87625 72.721875 6.7525 73.44375 6.625 74.1875 C5.85496074 77.65267666 4.44684835 80.61459008 2.9375 83.81640625 C1.94490417 85.93241938 1.94490417 85.93241938 1.56640625 88.04296875 C0.85066047 90.51599383 -0.34439024 91.84911261 -2.0625 93.75 C-2.61035156 94.36359375 -3.15820312 94.9771875 -3.72265625 95.609375 C-4.35494141 96.29773438 -4.35494141 96.29773438 -5 97 C-5 93.38975243 -3.98618419 91.89575947 -2.25 88.75 C1.34430353 81.73941269 3.25989724 74.65477895 5 67 C5.226875 66.09894531 5.45375 65.19789063 5.6875 64.26953125 C9.83314086 45.7005149 7.77484453 22.66215957 -0.109375 5.3984375 C-1 3 -1 3 0 0 Z " fill="#B8B8B8" transform="translate(443,183)"/>
<path d="M0 0 C0.66 0 1.32 0 2 0 C1.67 0.99 1.34 1.98 1 3 C0.67 2.01 0.34 1.02 0 0 Z M-4 1 C-3.34 1.66 -2.68 2.32 -2 3 C-1.34 3.33 -0.68 3.66 0 4 C-0.721875 4.74765625 -1.44375 5.4953125 -2.1875 6.265625 C-3.12552008 7.25992628 -4.06299167 8.25474521 -5 9.25 C-5.71542969 9.98669922 -5.71542969 9.98669922 -6.4453125 10.73828125 C-9.32425015 13.82285731 -10 14.60197923 -10 19 C-21.2919441 23.69275599 -31.97163872 23.44353623 -44 23 C-44 22.67 -44 22.34 -44 22 C-43.05640625 21.85304688 -42.1128125 21.70609375 -41.140625 21.5546875 C-27.11469749 19.10437486 -17.208016 14.1692759 -7 4 C-6.41347656 3.41605469 -5.82695312 2.83210938 -5.22265625 2.23046875 C-4.81917969 1.82441406 -4.41570312 1.41835938 -4 1 Z M-11 10 C-14.465 12.97 -14.465 12.97 -18 16 C-17.01 16.495 -17.01 16.495 -16 17 C-14.02 15.35 -12.04 13.7 -10 12 C-10.33 11.34 -10.66 10.68 -11 10 Z " fill="#C9C9C9" transform="translate(440,279)"/>
<path d="M0 0 C1.1015625 1.7265625 1.1015625 1.7265625 2 4 C0.08049342 11.6502074 -5.1436846 18.89449427 -11 24 C-11.99 24 -12.98 24 -14 24 C-14 24.66 -14 25.32 -14 26 C-20.27 26.33 -26.54 26.66 -33 27 C-33 26.34 -33 25.68 -33 25 C-33.55429688 24.79503906 -34.10859375 24.59007812 -34.6796875 24.37890625 C-35.40414062 24.10949219 -36.12859375 23.84007812 -36.875 23.5625 C-37.59429687 23.29566406 -38.31359375 23.02882813 -39.0546875 22.75390625 C-41 22 -41 22 -43 21 C-43 20.34 -43 19.68 -43 19 C-37 21 -37 21 -34.2265625 22.046875 C-27.52455443 24.02664494 -19.86910398 24.25837894 -13.4375 21.4375 C-7.80017614 15.80017614 -5.42610578 11.13481588 -3.7734375 3.2578125 C-3.51820313 2.51273437 -3.26296875 1.76765625 -3 1 C-2.01 0.67 -1.02 0.34 0 0 Z " fill="#BEBEBE" transform="translate(260,407)"/>
<path d="M0 0 C3.82700675 1.91350338 4.66954097 7.13403503 6 11 C7.31725005 15.66160157 8.31442447 20.12642068 8 25 C8.66 25.33 9.32 25.66 10 26 C10.06058594 27.18078125 10.12117188 28.3615625 10.18359375 29.578125 C10.26802582 31.1354277 10.35267249 32.69271879 10.4375 34.25 C10.47681641 35.02730469 10.51613281 35.80460937 10.55664062 36.60546875 C10.61948242 37.73662109 10.61948242 37.73662109 10.68359375 38.890625 C10.72025146 39.58188477 10.75690918 40.27314453 10.79467773 40.98535156 C11.00684272 43.0671416 11.48750561 44.97431619 12 47 C12.04296866 48.87450759 12.04042187 50.75043576 12 52.625 C11.81957237 56.46206317 11.81957237 56.46206317 13 60 C12.91348369 61.54613014 12.75997364 63.08909387 12.5625 64.625 C12.46066406 65.44226563 12.35882813 66.25953125 12.25390625 67.1015625 C12.17011719 67.72804688 12.08632813 68.35453125 12 69 C9.36002364 66.36002364 9.67574099 64.99515645 9.5078125 61.3046875 C9.44480957 60.12511475 9.38180664 58.94554199 9.31689453 57.73022461 C9.25356934 56.45800049 9.19024414 55.18577637 9.125 53.875 C8.12383371 37.0830893 6.80723147 19.8127036 0.734375 3.9765625 C0 2 0 2 0 0 Z " fill="#C7C7C7" transform="translate(247,141)"/>
<path d="M0 0 C-0.1640625 1.8359375 -0.1640625 1.8359375 -1 4 C-11.7413448 10.50228565 -26.22615484 12.74694305 -38.53515625 10.546875 C-40.37314234 10.09305127 -42.19053367 9.55675887 -44 9 C-41.2194158 8.20094587 -38.87368938 7.91192327 -35.98828125 8.04296875 C-24.98381735 8.5499587 -24.98381735 8.5499587 -14.75390625 4.9453125 C-12.28967293 3.61715111 -9.74034171 3.44610214 -7 3 C-2.8 0 -2.8 0 0 0 Z " fill="#BCBCBC" transform="translate(428,512)"/>
<path d="M0 0 C2.85478234 0.9844077 3.91958487 1.87740635 5.59375 4.4296875 C7.46250308 9.17424394 7.56901584 13.44085357 7.6875 18.5 C7.72093506 19.49652588 7.75437012 20.49305176 7.78881836 21.51977539 C8.10597267 32.01058103 8.10065281 42.50578288 8 53 C6.0625 52.625 6.0625 52.625 4 52 C3.67 51.34 3.34 50.68 3 50 C3.66 50 4.32 50 5 50 C5 37.79 5 25.58 5 13 C4.34 12.67 3.68 12.34 3 12 C3.020625 10.88625 3.04125 9.7725 3.0625 8.625 C3.26380718 5.16784079 3.26380718 5.16784079 2 3 C1.34 2.67 0.68 2.34 0 2 C0 1.34 0 0.68 0 0 Z M6 33 C6 38.61 6 44.22 6 50 C6.33 50 6.66 50 7 50 C7 44.39 7 38.78 7 33 C6.67 33 6.34 33 6 33 Z " fill="#FDFDFD" transform="translate(222,246)"/>
<path d="M0 0 C2.8714074 4.30711109 2.38350628 8.11435356 2.375 13.1875 C2.37338867 14.17041016 2.37177734 15.15332031 2.37011719 16.16601562 C2.18539349 27.30014614 0.66574372 37.81359689 -6 47 C-7 45 -7 45 -6.29296875 42.71484375 C-5.92816406 41.79832031 -5.56335938 40.88179688 -5.1875 39.9375 C-1.49451596 30.64504558 -0.6504831 21.88358782 -0.375 11.9375 C-0.33632813 10.78572266 -0.29765625 9.63394531 -0.2578125 8.44726562 C-0.16434848 5.63166204 -0.07858748 2.8160514 0 0 Z " fill="#B7B7B7" transform="translate(433,460)"/>
<path d="M0 0 C0.33 0 0.66 0 1 0 C1.02505615 0.55461914 1.0501123 1.10923828 1.07592773 1.68066406 C1.19227927 4.20398843 1.31482754 6.72697536 1.4375 9.25 C1.47681641 10.12269531 1.51613281 10.99539063 1.55664062 11.89453125 C1.59853516 12.73886719 1.64042969 13.58320313 1.68359375 14.453125 C1.72025146 15.22817383 1.75690918 16.00322266 1.79467773 16.80175781 C1.93216376 18.96600036 1.93216376 18.96600036 2.51367188 20.86328125 C3.19205877 23.84382449 3.11105328 26.67985162 3.09765625 29.734375 C3.09443359 31.02988281 3.09121094 32.32539063 3.08789062 33.66015625 C3.07953598 35.02343817 3.07107104 36.38671942 3.0625 37.75 C3.05748168 39.12890465 3.05291935 40.50781104 3.04882812 41.88671875 C3.03704093 45.25785659 3.02058635 48.62890628 3 52 C2.34 52 1.68 52 1 52 C0.67 52.66 0.34 53.32 0 54 C0 36.18 0 18.36 0 0 Z " fill="#B4B4B4" transform="translate(350,312)"/>
<path d="M0 0 C1.46098845 2.9219769 1.11134901 5.49893475 1.09765625 8.7578125 C1.09553383 9.75238968 1.09553383 9.75238968 1.09336853 10.76705933 C1.08776754 12.88641863 1.075215 15.00567259 1.0625 17.125 C1.05748512 18.56119639 1.05292219 19.99739444 1.04882812 21.43359375 C1.03779782 24.95576345 1.02053259 28.47787145 1 32 C1.66 32 2.32 32 3 32 C3.33 35.3 3.66 38.6 4 42 C-3.26661043 34.73338957 -2.18067649 22.78708613 -2.1875 13.125 C-2.19974609 12.18914062 -2.21199219 11.25328125 -2.22460938 10.2890625 C-2.22654297 9.391875 -2.22847656 8.4946875 -2.23046875 7.5703125 C-2.23457764 6.76352051 -2.23868652 5.95672852 -2.24291992 5.12548828 C-2 3 -2 3 0 0 Z " fill="#C0C0C0" transform="translate(350,414)"/>
<path d="M0 0 C0.66 0 1.32 0 2 0 C1.67 0.99 1.34 1.98 1 3 C0.67 2.01 0.34 1.02 0 0 Z M-2 3 C-1.34 3.33 -0.68 3.66 0 4 C-1.0828125 5.12148438 -1.0828125 5.12148438 -2.1875 6.265625 C-3.12552008 7.25992628 -4.06299167 8.25474521 -5 9.25 C-5.47695313 9.74113281 -5.95390625 10.23226563 -6.4453125 10.73828125 C-9.32425015 13.82285731 -10 14.60197923 -10 19 C-12.97 19 -15.94 19 -19 19 C-16 16 -16 16 -13.75 14.3125 C-10.641834 11.69881496 -8.15132866 8.81500255 -5.55078125 5.70703125 C-4 4 -4 4 -2 3 Z " fill="#C7C7C7" transform="translate(440,279)"/>
<path d="M0 0 C2.14593645 3.21890467 3.22567573 6.16435827 4.5 9.8125 C4.9228125 11.01519531 5.345625 12.21789062 5.78125 13.45703125 C6.1834375 14.62621094 6.585625 15.79539063 7 17 C7.37640625 18.0209375 7.7528125 19.041875 8.140625 20.09375 C9.02916064 23.09861599 9.26743273 25.56268388 9.25 28.6875 C9.25515625 29.61949219 9.2603125 30.55148438 9.265625 31.51171875 C9 34 9 34 7 37 C6.93530518 36.43192627 6.87061035 35.86385254 6.80395508 35.27856445 C5.5665965 24.77110656 4.31801933 15.0929044 -0.109375 5.3984375 C-1 3 -1 3 0 0 Z " fill="#C1C1C1" transform="translate(443,183)"/>
<path d="M0 0 C0.66 0 1.32 0 2 0 C2 12.54 2 25.08 2 38 C1.67 38 1.34 38 1 38 C0.67 32.06 0.34 26.12 0 20 C-0.33 20 -0.66 20 -1 20 C-1.02703562 17.41659616 -1.04685611 14.83347692 -1.0625 12.25 C-1.07087891 11.52039063 -1.07925781 10.79078125 -1.08789062 10.0390625 C-1.10391684 6.51329442 -0.95292713 3.38965084 0 0 Z " fill="#AAAAAA" transform="translate(284,268)"/>
<path d="M0 0 C0.99 0.33 1.98 0.66 3 1 C2.67 8.59 2.34 16.18 2 24 C1.34 24 0.68 24 0 24 C-1.66135509 15.90089392 -1.03339394 8.13797727 0 0 Z " fill="#B1B1B1" transform="translate(379,205)"/>
<path d="M0 0 C4.27131965 6.40697948 5.42104151 13.42125279 5 21 C1.62189063 18.38964276 0.63384368 15.07262778 0 11 C-0.15328402 7.32612828 -0.11960153 3.67442468 0 0 Z " fill="#FCFCFC" transform="translate(220,158)"/>
<path d="M0 0 C0.99 0.495 0.99 0.495 2 1 C2.59355614 3.64860427 2.74209269 6.29197322 3 9 C3.66 9 4.32 9 5 9 C5 11.31 5 13.62 5 16 C4.34 16 3.68 16 3 16 C2.67 16.66 2.34 17.32 2 18 C0.176679 11.84629161 -0.2361959 6.40353322 0 0 Z " fill="#C0C0C0" transform="translate(372,423)"/>
<path d="M0 0 C2 2 2 2 2.23046875 5.1875 C2.21628906 6.445625 2.20210938 7.70375 2.1875 9 C2.18105469 10.258125 2.17460937 11.51625 2.16796875 12.8125 C2 16 2 16 1 18 C0.76970044 20.37123246 0.58880058 22.74741943 0.4375 25.125 C0.35371094 26.40632813 0.26992188 27.68765625 0.18359375 29.0078125 C0.09271484 30.48894531 0.09271484 30.48894531 0 32 C-0.33 32 -0.66 32 -1 32 C-1.0293908 28.35418402 -1.04692874 24.70839913 -1.0625 21.0625 C-1.07087891 20.04091797 -1.07925781 19.01933594 -1.08789062 17.96679688 C-1.10731234 11.8878003 -0.79820318 6.0273768 0 0 Z " fill="#C3C3C3" transform="translate(260,285)"/>
<path d="M0 0 C0.33 0 0.66 0 1 0 C1.24803781 2.79117245 1.47414334 5.58115074 1.6875 8.375 C1.79674805 9.56609375 1.79674805 9.56609375 1.90820312 10.78125 C2.07421875 13.0859375 2.07421875 13.0859375 2 17 C1.01 17.66 0.02 18.32 -1 19 C-2.5171199 15.96576019 -2.18439257 12.82495206 -2.1875 9.5 C-2.19974609 8.81035156 -2.21199219 8.12070313 -2.22460938 7.41015625 C-2.22988695 5.60522506 -2.12184458 3.80082158 -2 2 C-1.34 1.34 -0.68 0.68 0 0 Z " fill="#B2B2B2" transform="translate(218,155)"/>
<path d="M0 0 C0.66 0.66 1.32 1.32 2 2 C1.67 2.33 1.34 2.66 1 3 C1.66 3.66 2.32 4.32 3 5 C-3.93 5 -10.86 5 -18 5 C-18 4.67 -18 4.34 -18 4 C-16.95199219 3.79503906 -15.90398437 3.59007812 -14.82421875 3.37890625 C-13.44529231 3.10687314 -12.06638717 2.83473209 -10.6875 2.5625 C-9.65206055 2.36043945 -9.65206055 2.36043945 -8.59570312 2.15429688 C-5.65710993 1.57225668 -2.84543315 0.94847772 0 0 Z " fill="#D8D8D8" transform="translate(414,297)"/>
<path d="M0 0 C0.66 0.33 1.32 0.66 2 1 C2.625 3.0625 2.625 3.0625 3 5 C6.465 4.505 6.465 4.505 10 4 C7.93970355 7.09044468 7.17393713 7.51221697 4 9 C3.34 9.66 2.68 10.32 2 11 C0.4375 9.4375 0.4375 9.4375 -1 7 C-0.6875 3.25 -0.6875 3.25 0 0 Z " fill="#C7C7C7" transform="translate(261,320)"/>
<path d="M0 0 C1.65 0 3.3 0 5 0 C4.01 0.8971875 4.01 0.8971875 3 1.8125 C0.40874558 5.94231174 0.75832774 8.81313482 1.0546875 13.57421875 C1 16 1 16 -1 18 C-2.71183038 11.96066243 -2.92941173 5.67573523 0 0 Z " fill="#C4C4C4" transform="translate(262,372)"/>
<path d="M0 0 C-3.75 2 -3.75 2 -6 2 C-6.2475 2.598125 -6.495 3.19625 -6.75 3.8125 C-8.16370012 6.28647521 -9.65055383 7.43370255 -12 9 C-12.48 3.6 -12.48 3.6 -10.5 1.125 C-6.87739877 -0.50517055 -3.95453342 -0.19772667 0 0 Z " fill="#D1D1D1" transform="translate(215,347)"/>
<path d="M0 0 C0.99 0.495 0.99 0.495 2 1 C1.67 12.88 1.34 24.76 1 37 C0.67 37 0.34 37 0 37 C0 24.79 0 12.58 0 0 Z " fill="#FEFEFE" transform="translate(288,271)"/>
<path d="M0 0 C-0.33 1.32 -0.66 2.64 -1 4 C-1.969375 3.95875 -2.93875 3.9175 -3.9375 3.875 C-8.44889724 3.85651067 -12.64837652 4.89482578 -17 6 C-14.62602268 3.221279 -12.55280146 2.30448041 -9.0625 1.3125 C-8.20785156 1.06113281 -7.35320312 0.80976563 -6.47265625 0.55078125 C-4 0 -4 0 0 0 Z " fill="#D2D2D2" transform="translate(287,202)"/>
<path d="M0 0 C0 3 0 3 -1.3125 4.625 C-4.93877889 7.57974576 -8.71911415 7.10349437 -13.1875 7.0625 C-14.45980469 7.05347656 -15.73210937 7.04445313 -17.04296875 7.03515625 C-18.50669922 7.01775391 -18.50669922 7.01775391 -20 7 C-20 6.67 -20 6.34 -20 6 C-19.28714844 5.97421875 -18.57429687 5.9484375 -17.83984375 5.921875 C-11.39961814 5.54048883 -7.33524904 4.63250998 -2 1 C-1.34 0.67 -0.68 0.34 0 0 Z " fill="#D4D4D4" transform="translate(252,425)"/>
<path d="M0 0 C2.88900308 1.44450154 4.75640808 3.70031829 7 6 C8.84188612 8.05270463 8.84188612 8.05270463 11 9 C11 9.99 11 10.98 11 12 C11.66 12.33 12.32 12.66 13 13 C10 13 10 13 7.30078125 10.59375 C6.29697757 9.5700032 5.30114351 8.5383946 4.3125 7.5 C3.80138672 6.97535156 3.29027344 6.45070313 2.76367188 5.91015625 C1.50227292 4.61339096 0.25022788 3.30753883 -1 2 C-0.67 1.34 -0.34 0.68 0 0 Z " fill="#F8F8F8" transform="translate(423,380)"/>
<path d="M0 0 C2.3828125 0.0234375 2.3828125 0.0234375 5.125 0.375 C6.03507812 0.48585938 6.94515625 0.59671875 7.8828125 0.7109375 C8.93082031 0.85402344 8.93082031 0.85402344 10 1 C6.43904445 2.87501642 2.8877114 3.95330847 -1 5 C-1.33 4.01 -1.66 3.02 -2 2 C-1.34 1.34 -0.68 0.68 0 0 Z " fill="#C4C4C4" transform="translate(354,293)"/>
<path d="M0 0 C0.66 0.33 1.32 0.66 2 1 C1.34 2.32 0.68 3.64 0 5 C3.3 5.99 6.6 6.98 10 8 C6.42982423 9.19005859 5.75433096 8.75814719 2.4375 7.25 C1.65246094 6.90453125 0.86742187 6.5590625 0.05859375 6.203125 C-2 5 -2 5 -4 2 C-2.125 0.9375 -2.125 0.9375 0 0 Z " fill="#D6D6D6" transform="translate(359,239)"/>
<path d="M0 0 C1.71017726 2.5652659 2.90417811 4.87960965 4.125 7.6875 C4.47820312 8.49574219 4.83140625 9.30398438 5.1953125 10.13671875 C5.46085938 10.75160156 5.72640625 11.36648438 6 12 C5.01 12 4.02 12 3 12 C2.67 10.35 2.34 8.7 2 7 C1.01 7 0.02 7 -1 7 C-0.67 4.69 -0.34 2.38 0 0 Z " fill="#CDCDCD" transform="translate(227,360)"/>
<path d="M0 0 C0.33 0 0.66 0 1 0 C1 8.58 1 17.16 1 26 C0.67 26 0.34 26 0 26 C0 17.42 0 8.84 0 0 Z " fill="#FEFEFE" transform="translate(379,311)"/>
<path d="M0 0 C-0.125 1.75 -0.125 1.75 -1 4 C-3.58581657 5.92560809 -6.1181072 7.5590536 -9 9 C-8.690625 8.401875 -8.38125 7.80375 -8.0625 7.1875 C-6.89790296 4.91043228 -6.89790296 4.91043228 -6 2 C-3.85412616 0.684787 -2.52986895 0 0 0 Z " fill="#D6D6D6" transform="translate(370,186)"/>
<path d="M0 0 C3.27112106 4.9066816 3.14082151 10.22631808 3 16 C2.34 16.33 1.68 16.66 1 17 C0.67 11.39 0.34 5.78 0 0 Z " fill="#B8B8B8" transform="translate(351,297)"/>
<path d="M0 0 C-0.6875 2.875 -0.6875 2.875 -2 6 C-4.625 7.375 -4.625 7.375 -7 8 C-6.44414399 4.1090079 -4.34122117 0 0 0 Z " fill="#D3D3D3" transform="translate(201,145)"/>
<path d="M0 0 C-0.33 1.32 -0.66 2.64 -1 4 C-2.98 4.33 -4.96 4.66 -7 5 C-5.22678182 1.07358831 -4.52021524 0 0 0 Z " fill="#C2C2C2" transform="translate(428,512)"/>
<path d="M0 0 C1.2065625 0.0309375 1.2065625 0.0309375 2.4375 0.0625 C1.06766497 3.22365776 0.4484362 4.0552092 -2.5625 6.0625 C-2.94468767 4.40635343 -3.27645102 2.73792976 -3.5625 1.0625 C-2.5625 0.0625 -2.5625 0.0625 0 0 Z " fill="#CCCCCC" transform="translate(262.5625,259.9375)"/>
<path d="M0 0 C0.33 0.66 0.66 1.32 1 2 C3.01669827 3.13350534 3.01669827 3.13350534 5 4 C4.67 6.31 4.34 8.62 4 11 C3.67 11 3.34 11 3 11 C2.67 9.35 2.34 7.7 2 6 C1.34 6 0.68 6 0 6 C0 4.02 0 2.04 0 0 Z " fill="#F6F6F6" transform="translate(375,426)"/>
<path d="M0 0 C1.41377341 2.63904371 2.37240135 5.07120629 3 8 C2.01 8 1.02 8 0 8 C-0.33 9.32 -0.66 10.64 -1 12 C-1.14285714 3.42857143 -1.14285714 3.42857143 0 0 Z " fill="#CECECE" transform="translate(220,169)"/>
<path d="M0 0 C0.33 0 0.66 0 1 0 C1 6.6 1 13.2 1 20 C0.67 20 0.34 20 0 20 C0 13.4 0 6.8 0 0 Z " fill="#FFFFFF" transform="translate(173,335)"/>
<path d="M0 0 C3 3 3 3 3.1875 6.6875 C3.125625 7.780625 3.06375 8.87375 3 10 C2.01 10 1.02 10 0 10 C0 6.7 0 3.4 0 0 Z " fill="#CACACA" transform="translate(280,150)"/>
<path d="M0 0 C0.66 0 1.32 0 2 0 C2.33 2.97 2.66 5.94 3 9 C2.01 8.34 1.02 7.68 0 7 C-0.1875 3.375 -0.1875 3.375 0 0 Z " fill="#B3B3B3" transform="translate(224,352)"/>
<path d="M0 0 C2.31 0 4.62 0 7 0 C7 0.66 7 1.32 7 2 C4.36 2.66 1.72 3.32 -1 4 C-0.67 2.68 -0.34 1.36 0 0 Z " fill="#C9C9C9" transform="translate(377,186)"/>
<path d="M0 0 C6.27 0 12.54 0 19 0 C19 0.33 19 0.66 19 1 C12.73 1 6.46 1 0 1 C0 0.67 0 0.34 0 0 Z " fill="#FFFFFF" transform="translate(380,118)"/>
<path d="M0 0 C-3.18762365 2.12508244 -5.26512223 2.5020163 -9 3 C-9.33 2.01 -9.66 1.02 -10 0 C-6.30458414 -0.95024979 -3.69541586 -0.95024979 0 0 Z " fill="#D9D9D9" transform="translate(428,298)"/>
<path d="M0 0 C0.33 0 0.66 0 1 0 C1 5.94 1 11.88 1 18 C0.67 18 0.34 18 0 18 C0 12.06 0 6.12 0 0 Z " fill="#FFFFFF" transform="translate(226,259)"/>
<path d="M0 0 C0.33 0 0.66 0 1 0 C1 5.94 1 11.88 1 18 C0.67 18 0.34 18 0 18 C0 12.06 0 6.12 0 0 Z " fill="#FEFEFE" transform="translate(287,180)"/>
<path d="M0 0 C1.485 0.99 1.485 0.99 3 2 C3 2.66 3 3.32 3 4 C3.99 4.33 4.98 4.66 6 5 C5.67 5.99 5.34 6.98 5 8 C3.02 5.69 1.04 3.38 -1 1 C-0.67 0.67 -0.34 0.34 0 0 Z " fill="#FEFEFE" transform="translate(449,142)"/>
<path d="M0 0 C4.95 0 9.9 0 15 0 C15 0.33 15 0.66 15 1 C10.05 1 5.1 1 0 1 C0 0.67 0 0.34 0 0 Z " fill="#FFFFFF" transform="translate(395,304)"/>
<path d="M0 0 C0.33 0 0.66 0 1 0 C1 4.95 1 9.9 1 15 C0.67 15 0.34 15 0 15 C0 10.05 0 5.1 0 0 Z " fill="#FFFFFF" transform="translate(402,215)"/>
<path d="M0 0 C0.33 0 0.66 0 1 0 C1 4.95 1 9.9 1 15 C0.67 15 0.34 15 0 15 C0 10.05 0 5.1 0 0 Z " fill="#FDFDFD" transform="translate(383,212)"/>
<path d="M0 0 C4.95 0 9.9 0 15 0 C15 0.33 15 0.66 15 1 C10.05 1 5.1 1 0 1 C0 0.67 0 0.34 0 0 Z " fill="#FFFFFF" transform="translate(208,88)"/>
<path d="M0 0 C0.33 0 0.66 0 1 0 C1 4.62 1 9.24 1 14 C0.67 14 0.34 14 0 14 C0 9.38 0 4.76 0 0 Z " fill="#FEFEFE" transform="translate(286,166)"/>
<path d="M0 0 C4.29 0 8.58 0 13 0 C13 0.33 13 0.66 13 1 C8.71 1 4.42 1 0 1 C0 0.67 0 0.34 0 0 Z " fill="#A8A8A8" transform="translate(232,434)"/>
<path d="M0 0 C0.33 0 0.66 0 1 0 C1 4.29 1 8.58 1 13 C0.67 13 0.34 13 0 13 C0 8.71 0 4.42 0 0 Z " fill="#FDFDFD" transform="translate(378,337)"/>
<path d="M0 0 C3.96 0 7.92 0 12 0 C12 0.33 12 0.66 12 1 C8.04 1 4.08 1 0 1 C0 0.67 0 0.34 0 0 Z " fill="#B8B8B8" transform="translate(392,524)"/>
<path d="M0 0 C0.33 0 0.66 0 1 0 C1 3.63 1 7.26 1 11 C0.67 11 0.34 11 0 11 C0 7.37 0 3.74 0 0 Z " fill="#F7F7F7" transform="translate(311,406)"/>
<path d="M0 0 C0.33 0 0.66 0 1 0 C1 3.63 1 7.26 1 11 C0.67 11 0.34 11 0 11 C0 7.37 0 3.74 0 0 Z " fill="#FEFEFE" transform="translate(162,158)"/>
<path d="M0 0 C0.33 0 0.66 0 1 0 C1 3.3 1 6.6 1 10 C0.67 10 0.34 10 0 10 C0 6.7 0 3.4 0 0 Z " fill="#FEFEFE" transform="translate(161,145)"/>
<path d="M0 0 C0.33 0 0.66 0 1 0 C1 2.97 1 5.94 1 9 C0.67 9 0.34 9 0 9 C0 6.03 0 3.06 0 0 Z " fill="#FAFAFA" transform="translate(461,451)"/>
<path d="M0 0 C0.33 0 0.66 0 1 0 C1 2.97 1 5.94 1 9 C0.67 9 0.34 9 0 9 C0 6.03 0 3.06 0 0 Z " fill="#FEFEFE" transform="translate(384,202)"/>
<path d="M0 0 C0.33 0 0.66 0 1 0 C1 2.64 1 5.28 1 8 C0.67 8 0.34 8 0 8 C0 5.36 0 2.72 0 0 Z " fill="#F6F6F6" transform="translate(313,431)"/>
<path d="M0 0 C0.33 0 0.66 0 1 0 C1 2.64 1 5.28 1 8 C0.67 8 0.34 8 0 8 C0 5.36 0 2.72 0 0 Z " fill="#FFFFFF" transform="translate(174,355)"/>
<path d="M0 0 C2.64 0 5.28 0 8 0 C8 0.33 8 0.66 8 1 C5.36 1 2.72 1 0 1 C0 0.67 0 0.34 0 0 Z " fill="#FEFEFE" transform="translate(387,303)"/>
<path d="M0 0 C0.99 0.33 1.98 0.66 3 1 C2.34 1 1.68 1 1 1 C1 2.65 1 4.3 1 6 C0.67 6 0.34 6 0 6 C0 4.02 0 2.04 0 0 Z " fill="#FEFEFE" transform="translate(380,301)"/>
<path d="M0 0 C2.64 0 5.28 0 8 0 C8 0.33 8 0.66 8 1 C5.36 1 2.72 1 0 1 C0 0.67 0 0.34 0 0 Z " fill="#FFFFFF" transform="translate(217,295)"/>
<path d="M0 0 C0.33 0 0.66 0 1 0 C1 2.31 1 4.62 1 7 C0.67 7 0.34 7 0 7 C0 4.69 0 2.38 0 0 Z " fill="#F7F7F7" transform="translate(460,462)"/>
<path d="M0 0 C0.33 0 0.66 0 1 0 C1 2.31 1 4.62 1 7 C0.67 7 0.34 7 0 7 C0 4.69 0 2.38 0 0 Z " fill="#F7F7F7" transform="translate(310,398)"/>
<path d="M0 0 C0.33 0 0.66 0 1 0 C1 2.31 1 4.62 1 7 C0.67 7 0.34 7 0 7 C0 4.69 0 2.38 0 0 Z " fill="#F7F7F7" transform="translate(286,387)"/>
<path d="M0 0 C2.31 0 4.62 0 7 0 C7 0.33 7 0.66 7 1 C4.69 1 2.38 1 0 1 C0 0.67 0 0.34 0 0 Z " fill="#FEFEFE" transform="translate(410,303)"/>
<path d="M0 0 C2.31 0 4.62 0 7 0 C7 0.33 7 0.66 7 1 C4.69 1 2.38 1 0 1 C0 0.67 0 0.34 0 0 Z " fill="#FFFFFF" transform="translate(210,296)"/>
<path d="M0 0 C0.33 0 0.66 0 1 0 C1 2.31 1 4.62 1 7 C0.67 7 0.34 7 0 7 C0 4.69 0 2.38 0 0 Z " fill="#FFFFFF" transform="translate(311,284)"/>
<path d="M0 0 C0.33 0 0.66 0 1 0 C1 2.31 1 4.62 1 7 C0.67 7 0.34 7 0 7 C0 4.69 0 2.38 0 0 Z " fill="#FFFFFF" transform="translate(481,212)"/>
<path d="M0 0 C0.33 0 0.66 0 1 0 C1 2.31 1 4.62 1 7 C0.67 7 0.34 7 0 7 C0 4.69 0 2.38 0 0 Z " fill="#FEFEFE" transform="translate(385,195)"/>
<path d="M0 0 C0.33 0 0.66 0 1 0 C1 2.31 1 4.62 1 7 C0.67 7 0.34 7 0 7 C0 4.69 0 2.38 0 0 Z " fill="#FEFEFE" transform="translate(479,193)"/>
<path d="M0 0 C0.33 0 0.66 0 1 0 C1 2.31 1 4.62 1 7 C0.67 7 0.34 7 0 7 C0 4.69 0 2.38 0 0 Z " fill="#FEFEFE" transform="translate(285,159)"/>
<path d="M0 0 C0.33 0 0.66 0 1 0 C1 1.98 1 3.96 1 6 C0.67 6 0.34 6 0 6 C0 4.02 0 2.04 0 0 Z " fill="#FFFFFF" transform="translate(174,329)"/>
<path d="M0 0 C0.33 0.66 0.66 1.32 1 2 C-0.65 2 -2.3 2 -4 2 C-2.68 1.34 -1.36 0.68 0 0 Z " fill="#FFFFFF" transform="translate(400,234)"/>
<path d="M0 0 C1.98 0 3.96 0 6 0 C6 0.33 6 0.66 6 1 C4.02 1 2.04 1 0 1 C0 0.67 0 0.34 0 0 Z " fill="#FEFEFE" transform="translate(202,89)"/>
<path d="M0 0 C1.65 0 3.3 0 5 0 C5 0.33 5 0.66 5 1 C3.35 1 1.7 1 0 1 C0 0.67 0 0.34 0 0 Z " fill="#ADADAD" transform="translate(405,523)"/>
<path d="M0 0 C1.65 0 3.3 0 5 0 C5 0.33 5 0.66 5 1 C3.35 1 1.7 1 0 1 C0 0.67 0 0.34 0 0 Z " fill="#AFAFAF" transform="translate(410,522)"/>
<path d="M0 0 C0.33 0 0.66 0 1 0 C1 1.65 1 3.3 1 5 C0.67 5 0.34 5 0 5 C0 3.35 0 1.7 0 0 Z " fill="#F6F6F6" transform="translate(314,439)"/>
<path d="M0 0 C0.33 0 0.66 0 1 0 C1 1.65 1 3.3 1 5 C0.67 5 0.34 5 0 5 C0 3.35 0 1.7 0 0 Z " fill="#FFFFFF" transform="translate(315,180)"/>
<path d="M0 0 C0.33 0 0.66 0 1 0 C1 1.65 1 3.3 1 5 C0.67 5 0.34 5 0 5 C0 3.35 0 1.7 0 0 Z " fill="#FEFEFE" transform="translate(163,171)"/>
<path d="M0 0 C0.33 0 0.66 0 1 0 C1 1.65 1 3.3 1 5 C0.67 5 0.34 5 0 5 C0 3.35 0 1.7 0 0 Z " fill="#FEFEFE" transform="translate(284,154)"/>
<path d="M0 0 C1.65 0 3.3 0 5 0 C5 0.33 5 0.66 5 1 C3.35 1 1.7 1 0 1 C0 0.67 0 0.34 0 0 Z " fill="#FFFFFF" transform="translate(369,120)"/>
<path d="M0 0 C1.65 0 3.3 0 5 0 C5 0.33 5 0.66 5 1 C3.35 1 1.7 1 0 1 C0 0.67 0 0.34 0 0 Z " fill="#FFFFFF" transform="translate(399,119)"/>
<path d="M0 0 C1.65 0 3.3 0 5 0 C5 0.33 5 0.66 5 1 C3.35 1 1.7 1 0 1 C0 0.67 0 0.34 0 0 Z " fill="#FFFFFF" transform="translate(374,119)"/>
<path d="M0 0 C1.65 0 3.3 0 5 0 C5 0.33 5 0.66 5 1 C3.35 1 1.7 1 0 1 C0 0.67 0 0.34 0 0 Z " fill="#FEFEFE" transform="translate(223,89)"/>
<path d="M0 0 C4 1 4 1 4 1 Z " fill="#BEBEBE" transform="translate(388,523)"/>
<path d="M0 0 C0.99 0.33 1.98 0.66 3 1 C2.01 1 1.02 1 0 1 C0 0.67 0 0.34 0 0 Z " fill="#C9C9C9" transform="translate(356,507)"/>
<path d="M0 0 C1 4 1 4 1 4 Z " fill="#F8F8F8" transform="translate(317,451)"/>
<path d="M0 0 C1 4 1 4 1 4 Z " fill="#F7F7F7" transform="translate(315,444)"/>
<path d="M0 0 C4 1 4 1 4 1 Z " fill="#989898" transform="translate(246,433)"/>
<path d="M0 0 C4 1 4 1 4 1 Z " fill="#9B9B9B" transform="translate(250,432)"/>
<path d="M0 0 C1 4 1 4 1 4 Z " fill="#F3F3F3" transform="translate(284,398)"/>
<path d="M0 0 C1 4 1 4 1 4 Z " fill="#F5F5F5" transform="translate(285,394)"/>
<path d="M0 0 C1 4 1 4 1 4 Z " fill="#FFFFFF" transform="translate(176,368)"/>
<path d="M0 0 C1 4 1 4 1 4 Z " fill="#FEFEFE" transform="translate(379,350)"/>
<path d="M0 0 C4 1 4 1 4 1 Z " fill="#FFFFFF" transform="translate(298,275)"/>
<path d="M0 0 C4 1 4 1 4 1 Z " fill="#FEFEFE" transform="translate(392,234)"/>
<path d="M0 0 C4 1 4 1 4 1 Z " fill="#FFFFFF" transform="translate(301,208)"/>
<path d="M0 0 C4 1 4 1 4 1 Z " fill="#FFFFFF" transform="translate(297,207)"/>
<path d="M0 0 C1 4 1 4 1 4 Z " fill="#FEFEFE" transform="translate(478,189)"/>
<path d="M0 0 C1 4 1 4 1 4 Z " fill="#FFFFFF" transform="translate(167,189)"/>
<path d="M0 0 C1 4 1 4 1 4 Z " fill="#FFFFFF" transform="translate(164,177)"/>
<path d="M0 0 C1 4 1 4 1 4 Z " fill="#FFFFFF" transform="translate(317,172)"/>
<path d="M0 0 C1 4 1 4 1 4 Z " fill="#FEFEFE" transform="translate(283,149)"/>
<path d="M0 0 C1 4 1 4 1 4 Z " fill="#FFFFFF" transform="translate(163,130)"/>
<path d="M0 0 C4 1 4 1 4 1 Z " fill="#FFFFFF" transform="translate(405,120)"/>
<path d="M0 0 C3 1 3 1 3 1 Z " fill="#C1C1C1" transform="translate(384,522)"/>
<path d="M0 0 C3 1 3 1 3 1 Z " fill="#B5B5B5" transform="translate(415,521)"/>
<path d="M0 0 C3 1 3 1 3 1 Z " fill="#C1C1C1" transform="translate(381,521)"/>
<path d="" fill="#F8F8F8" transform="translate(0,0)"/>
<path d="" fill="#F7F7F7" transform="translate(0,0)"/>
<path d="M0 0 C3 1 3 1 3 1 Z " fill="#A1A1A1" transform="translate(256,430)"/>
<path d="" fill="#FFFFFF" transform="translate(0,0)"/>
<path d="M0 0 C3 1 3 1 3 1 Z " fill="#FFFFFF" transform="translate(383,357)"/>
<path d="" fill="#FFFFFF" transform="translate(0,0)"/>
<path d="M0 0 C3 1 3 1 3 1 Z " fill="#FFFFFF" transform="translate(300,323)"/>
<path d="M0 0 C3 1 3 1 3 1 Z " fill="#FFFFFF" transform="translate(384,302)"/>
<path d="M0 0 C3 1 3 1 3 1 Z " fill="#FEFEFE" transform="translate(421,301)"/>
<path d="M0 0 C3 1 3 1 3 1 Z " fill="#FEFEFE" transform="translate(425,300)"/>
<path d="M0 0 C3 1 3 1 3 1 Z " fill="#FEFEFE" transform="translate(207,297)"/>
<path d="" fill="#FFFFFF" transform="translate(0,0)"/>
<path d="M0 0 C3 1 3 1 3 1 Z " fill="#FFFFFF" transform="translate(304,277)"/>
<path d="M0 0 C3 1 3 1 3 1 Z " fill="#FFFFFF" transform="translate(293,273)"/>
<path d="M0 0 C3 1 3 1 3 1 Z " fill="#FFFFFF" transform="translate(290,272)"/>
<path d="" fill="#FEFEFE" transform="translate(0,0)"/>
<path d="" fill="#FEFEFE" transform="translate(0,0)"/>
<path d="M0 0 C3 1 3 1 3 1 Z " fill="#FFFFFF" transform="translate(309,210)"/>
<path d="M0 0 C3 1 3 1 3 1 Z " fill="#FEFEFE" transform="translate(305,209)"/>
<path d="M0 0 C3 1 3 1 3 1 Z " fill="#FEFEFE" transform="translate(294,206)"/>
<path d="M0 0 C3 1 3 1 3 1 Z " fill="#FEFEFE" transform="translate(291,205)"/>
<path d="" fill="#FFFFFF" transform="translate(0,0)"/>
<path d="" fill="#FFFFFF" transform="translate(0,0)"/>
<path d="" fill="#FFFFFF" transform="translate(0,0)"/>
<path d="" fill="#FFFFFF" transform="translate(0,0)"/>
<path d="" fill="#FEFEFE" transform="translate(0,0)"/>
<path d="" fill="#FEFEFE" transform="translate(0,0)"/>
<path d="" fill="#FFFFFF" transform="translate(0,0)"/>
<path d="M0 0 C3 1 3 1 3 1 Z " fill="#FFFFFF" transform="translate(414,122)"/>
<path d="M0 0 C3 1 3 1 3 1 Z " fill="#FFFFFF" transform="translate(362,122)"/>
<path d="M0 0 C3 1 3 1 3 1 Z " fill="#FFFFFF" transform="translate(410,121)"/>
<path d="M0 0 C3 1 3 1 3 1 Z " fill="#FEFEFE" transform="translate(236,92)"/>
<path d="M0 0 C3 1 3 1 3 1 Z " fill="#FFFFFF" transform="translate(196,91)"/>
<path d="M0 0 C3 1 3 1 3 1 Z " fill="#FEFEFE" transform="translate(229,90)"/>
<path d="M0 0 C3 1 3 1 3 1 Z " fill="#FFFFFF" transform="translate(199,90)"/>
<path d="M0 0 C2 1 2 1 2 1 Z " fill="#C0C0C0" transform="translate(418,520)"/>
<path d="M0 0 C2 1 2 1 2 1 Z " fill="#C6C6C6" transform="translate(378,520)"/>
<path d="M0 0 C2 1 2 1 2 1 Z " fill="#D1D1D1" transform="translate(420,519)"/>
<path d="M0 0 C2 1 2 1 2 1 Z " fill="#C4C4C4" transform="translate(376,519)"/>
<path d="M0 0 C2 1 2 1 2 1 Z " fill="#DBDBDB" transform="translate(422,518)"/>
<path d="M0 0 C2 1 2 1 2 1 Z " fill="#E0E0E0" transform="translate(424,517)"/>
<path d="M0 0 C2 1 2 1 2 1 Z " fill="#E6E6E6" transform="translate(428,515)"/>
<path d="M0 0 C2 1 2 1 2 1 Z " fill="#C7C7C7" transform="translate(368,515)"/>
<path d="M0 0 C2 1 2 1 2 1 Z " fill="#C9C9C9" transform="translate(366,514)"/>
<path d="M0 0 C2 1 2 1 2 1 Z " fill="#E8E8E8" transform="translate(433,512)"/>
<path d="M0 0 C2 1 2 1 2 1 Z " fill="#C8C8C8" transform="translate(363,512)"/>
<path d="M0 0 C2 1 2 1 2 1 Z " fill="#CACACA" transform="translate(360,510)"/>
<path d="" fill="#E7E7E7" transform="translate(0,0)"/>
<path d="" fill="#F4F4F4" transform="translate(0,0)"/>
<path d="" fill="#F6F6F6" transform="translate(0,0)"/>
<path d="" fill="#F5F5F5" transform="translate(0,0)"/>
<path d="" fill="#F9F9F9" transform="translate(0,0)"/>
<path d="" fill="#F9F9F9" transform="translate(0,0)"/>
<path d="" fill="#F9F9F9" transform="translate(0,0)"/>
<path d="" fill="#F6F6F6" transform="translate(0,0)"/>
<path d="" fill="#F5F5F5" transform="translate(0,0)"/>
<path d="" fill="#F7F7F7" transform="translate(0,0)"/>
<path d="" fill="#FCFCFC" transform="translate(0,0)"/>
<path d="" fill="#FDFDFD" transform="translate(0,0)"/>
<path d="M0 0 C2 1 2 1 2 1 Z " fill="#C2C2C2" transform="translate(225,432)"/>
<path d="M0 0 C2 1 2 1 2 1 Z " fill="#9D9D9D" transform="translate(254,431)"/>
<path d="M0 0 C2 1 2 1 2 1 Z " fill="#C9C9C9" transform="translate(220,430)"/>
<path d="M0 0 C2 1 2 1 2 1 Z " fill="#BFBFBF" transform="translate(259,429)"/>
<path d="M0 0 C2 1 2 1 2 1 Z " fill="#D7D7D7" transform="translate(261,428)"/>
<path d="M0 0 C2 1 2 1 2 1 Z " fill="#CBCBCB" transform="translate(215,427)"/>
<path d="M0 0 C2 1 2 1 2 1 Z " fill="#DEDEDE" transform="translate(264,426)"/>
<path d="M0 0 C2 1 2 1 2 1 Z " fill="#CFCFCF" transform="translate(212,425)"/>
<path d="" fill="#FDFDFD" transform="translate(0,0)"/>
<path d="" fill="#FDFDFD" transform="translate(0,0)"/>
<path d="" fill="#F8F8F8" transform="translate(0,0)"/>
<path d="" fill="#F8F8F8" transform="translate(0,0)"/>
<path d="M0 0 C2 1 2 1 2 1 Z " fill="#F7F7F7" transform="translate(306,394)"/>
<path d="M0 0 C2 1 2 1 2 1 Z " fill="#F8F8F8" transform="translate(304,393)"/>
<path d="M0 0 C2 1 2 1 2 1 Z " fill="#F8F8F8" transform="translate(302,392)"/>
<path d="M0 0 C2 1 2 1 2 1 Z " fill="#F8F8F8" transform="translate(300,391)"/>
<path d="M0 0 C2 1 2 1 2 1 Z " fill="#F8F8F8" transform="translate(298,390)"/>
<path d="M0 0 C2 1 2 1 2 1 Z " fill="#F8F8F8" transform="translate(296,389)"/>
<path d="M0 0 C2 1 2 1 2 1 Z " fill="#F8F8F8" transform="translate(294,388)"/>
<path d="M0 0 C2 1 2 1 2 1 Z " fill="#F9F9F9" transform="translate(290,386)"/>
<path d="" fill="#FFFFFF" transform="translate(0,0)"/>
<path d="" fill="#FFFFFF" transform="translate(0,0)"/>
<path d="" fill="#FFFFFF" transform="translate(0,0)"/>
<path d="M0 0 C2 1 2 1 2 1 Z " fill="#FFFFFF" transform="translate(411,371)"/>
<path d="M0 0 C2 1 2 1 2 1 Z " fill="#FFFFFF" transform="translate(408,369)"/>
<path d="M0 0 C2 1 2 1 2 1 Z " fill="#FFFFFF" transform="translate(406,368)"/>
<path d="M0 0 C2 1 2 1 2 1 Z " fill="#FFFFFF" transform="translate(404,367)"/>
<path d="M0 0 C2 1 2 1 2 1 Z " fill="#FFFFFF" transform="translate(402,366)"/>
<path d="M0 0 C2 1 2 1 2 1 Z " fill="#FFFFFF" transform="translate(398,364)"/>
<path d="M0 0 C2 1 2 1 2 1 Z " fill="#FFFFFF" transform="translate(396,363)"/>
<path d="M0 0 C2 1 2 1 2 1 Z " fill="#FFFFFF" transform="translate(394,362)"/>
<path d="M0 0 C2 1 2 1 2 1 Z " fill="#FFFFFF" transform="translate(392,361)"/>
<path d="M0 0 C2 1 2 1 2 1 Z " fill="#FFFFFF" transform="translate(390,360)"/>
<path d="" fill="#FFFFFF" transform="translate(0,0)"/>
<path d="M0 0 C2 1 2 1 2 1 Z " fill="#FFFFFF" transform="translate(305,325)"/>
<path d="M0 0 C2 1 2 1 2 1 Z " fill="#FFFFFF" transform="translate(303,324)"/>
<path d="M0 0 C2 1 2 1 2 1 Z " fill="#FEFEFE" transform="translate(298,322)"/>
<path d="M0 0 C2 1 2 1 2 1 Z " fill="#FFFFFF" transform="translate(296,321)"/>
<path d="M0 0 C2 1 2 1 2 1 Z " fill="#FFFFFF" transform="translate(294,320)"/>
<path d="" fill="#FFFFFF" transform="translate(0,0)"/>
<path d="M0 0 C2 1 2 1 2 1 Z " fill="#FEFEFE" transform="translate(418,302)"/>
<path d="M0 0 C2 1 2 1 2 1 Z " fill="#FFFFFF" transform="translate(197,301)"/>
<path d="M0 0 C2 1 2 1 2 1 Z " fill="#FFFFFF" transform="translate(199,300)"/>
<path d="M0 0 C2 1 2 1 2 1 Z " fill="#FEFEFE" transform="translate(428,299)"/>
<path d="M0 0 C2 1 2 1 2 1 Z " fill="#FEFEFE" transform="translate(201,299)"/>
<path d="M0 0 C2 1 2 1 2 1 Z " fill="#FEFEFE" transform="translate(430,298)"/>
<path d="M0 0 C2 1 2 1 2 1 Z " fill="#FDFDFD" transform="translate(440,293)"/>
<path d="M0 0 C2 1 2 1 2 1 Z " fill="#FFFFFF" transform="translate(307,278)"/>
<path d="M0 0 C2 1 2 1 2 1 Z " fill="#FFFFFF" transform="translate(302,276)"/>
<path d="M0 0 C2 1 2 1 2 1 Z " fill="#FFFFFF" transform="translate(296,274)"/>
<path d="" fill="#FEFEFE" transform="translate(0,0)"/>
<path d="M0 0 C2 1 2 1 2 1 Z " fill="#FEFEFE" transform="translate(218,246)"/>
<path d="M0 0 C2 1 2 1 2 1 Z " fill="#FFFFFF" transform="translate(216,245)"/>
<path d="M0 0 C2 1 2 1 2 1 Z " fill="#FFFFFF" transform="translate(214,244)"/>
<path d="M0 0 C2 1 2 1 2 1 Z " fill="#FFFFFF" transform="translate(212,243)"/>
<path d="M0 0 C2 1 2 1 2 1 Z " fill="#FFFFFF" transform="translate(210,242)"/>
<path d="M0 0 C2 1 2 1 2 1 Z " fill="#FFFFFF" transform="translate(206,240)"/>
<path d="M0 0 C2 1 2 1 2 1 Z " fill="#FEFEFE" transform="translate(204,239)"/>
<path d="M0 0 C2 1 2 1 2 1 Z " fill="#FEFEFE" transform="translate(389,233)"/>
<path d="M0 0 C2 1 2 1 2 1 Z " fill="#FEFEFE" transform="translate(386,232)"/>
<path d="" fill="#FFFFFF" transform="translate(0,0)"/>
<path d="" fill="#FEFEFE" transform="translate(0,0)"/>
<path d="" fill="#FFFFFF" transform="translate(0,0)"/>
<path d="" fill="#FFFFFF" transform="translate(0,0)"/>
<path d="" fill="#FFFFFF" transform="translate(0,0)"/>
<path d="" fill="#FFFFFF" transform="translate(0,0)"/>
<path d="" fill="#FFFFFF" transform="translate(0,0)"/>
<path d="" fill="#FEFEFE" transform="translate(0,0)"/>
<path d="" fill="#FEFEFE" transform="translate(0,0)"/>
<path d="M0 0 C2 1 2 1 2 1 Z " fill="#FEFEFE" transform="translate(433,130)"/>
<path d="M0 0 C2 1 2 1 2 1 Z " fill="#FFFFFF" transform="translate(349,129)"/>
<path d="" fill="#FFFFFF" transform="translate(0,0)"/>
<path d="" fill="#FFFFFF" transform="translate(0,0)"/>
<path d="M0 0 C2 1 2 1 2 1 Z " fill="#FFFFFF" transform="translate(427,127)"/>
<path d="M0 0 C2 1 2 1 2 1 Z " fill="#FFFFFF" transform="translate(352,127)"/>
<path d="M0 0 C2 1 2 1 2 1 Z " fill="#FFFFFF" transform="translate(354,126)"/>
<path d="M0 0 C2 1 2 1 2 1 Z " fill="#FFFFFF" transform="translate(423,125)"/>
<path d="M0 0 C2 1 2 1 2 1 Z " fill="#FFFFFF" transform="translate(356,125)"/>
<path d="" fill="#FFFFFF" transform="translate(0,0)"/>
<path d="M0 0 C2 1 2 1 2 1 Z " fill="#FFFFFF" transform="translate(420,124)"/>
<path d="M0 0 C2 1 2 1 2 1 Z " fill="#FFFFFF" transform="translate(358,124)"/>
<path d="M0 0 C2 1 2 1 2 1 Z " fill="#FFFFFF" transform="translate(418,123)"/>
<path d="M0 0 C2 1 2 1 2 1 Z " fill="#FFFFFF" transform="translate(360,123)"/>
<path d="" fill="#FFFFFF" transform="translate(0,0)"/>
<path d="" fill="#FFFFFF" transform="translate(0,0)"/>
<path d="M0 0 C2 1 2 1 2 1 Z " fill="#FFFFFF" transform="translate(366,121)"/>
<path d="" fill="#FFFFFF" transform="translate(0,0)"/>
<path d="" fill="#FFFFFF" transform="translate(0,0)"/>
<path d="M0 0 C2 1 2 1 2 1 Z " fill="#FFFFFF" transform="translate(250,99)"/>
<path d="M0 0 C2 1 2 1 2 1 Z " fill="#FEFEFE" transform="translate(245,96)"/>
<path d="M0 0 C2 1 2 1 2 1 Z " fill="#FFFFFF" transform="translate(243,95)"/>
<path d="M0 0 C2 1 2 1 2 1 Z " fill="#FFFFFF" transform="translate(241,94)"/>
<path d="M0 0 C2 1 2 1 2 1 Z " fill="#FFFFFF" transform="translate(190,94)"/>
<path d="M0 0 C2 1 2 1 2 1 Z " fill="#FFFFFF" transform="translate(239,93)"/>
<path d="M0 0 C2 1 2 1 2 1 Z " fill="#FEFEFE" transform="translate(194,92)"/>
<path d="" fill="#CACACA" transform="translate(0,0)"/>
<path d="" fill="#E5E5E5" transform="translate(0,0)"/>
<path d="" fill="#CACACA" transform="translate(0,0)"/>
<path d="" fill="#E6E6E6" transform="translate(0,0)"/>
<path d="" fill="#E8E8E8" transform="translate(0,0)"/>
<path d="" fill="#CACACA" transform="translate(0,0)"/>
<path d="" fill="#E9E9E9" transform="translate(0,0)"/>
<path d="" fill="#CACACA" transform="translate(0,0)"/>
<path d="" fill="#E8E8E8" transform="translate(0,0)"/>
<path d="" fill="#CBCBCB" transform="translate(0,0)"/>
<path d="" fill="#EBEBEB" transform="translate(0,0)"/>
<path d="" fill="#EBEBEB" transform="translate(0,0)"/>
<path d="" fill="#CBCBCB" transform="translate(0,0)"/>
<path d="" fill="#ECECEC" transform="translate(0,0)"/>
<path d="" fill="#CBCBCB" transform="translate(0,0)"/>
<path d="" fill="#EDEDED" transform="translate(0,0)"/>
<path d="" fill="#CCCCCC" transform="translate(0,0)"/>
<path d="" fill="#EEEEEE" transform="translate(0,0)"/>
<path d="" fill="#CCCCCC" transform="translate(0,0)"/>
<path d="" fill="#CBCBCB" transform="translate(0,0)"/>
<path d="" fill="#CCCCCC" transform="translate(0,0)"/>
<path d="" fill="#CCCCCC" transform="translate(0,0)"/>
<path d="" fill="#CCCCCC" transform="translate(0,0)"/>
<path d="" fill="#CDCDCD" transform="translate(0,0)"/>
<path d="" fill="#CECECE" transform="translate(0,0)"/>
<path d="" fill="#CFCFCF" transform="translate(0,0)"/>
<path d="" fill="#F0F0F0" transform="translate(0,0)"/>
<path d="" fill="#D0D0D0" transform="translate(0,0)"/>
<path d="" fill="#D1D1D1" transform="translate(0,0)"/>
<path d="" fill="#D2D2D2" transform="translate(0,0)"/>
<path d="" fill="#F0F0F0" transform="translate(0,0)"/>
<path d="" fill="#E3E3E3" transform="translate(0,0)"/>
<path d="" fill="#E4E4E4" transform="translate(0,0)"/>
<path d="" fill="#F3F3F3" transform="translate(0,0)"/>
<path d="" fill="#E6E6E6" transform="translate(0,0)"/>
<path d="" fill="#E6E6E6" transform="translate(0,0)"/>
<path d="" fill="#F3F3F3" transform="translate(0,0)"/>
<path d="" fill="#F5F5F5" transform="translate(0,0)"/>
<path d="" fill="#F5F5F5" transform="translate(0,0)"/>
<path d="" fill="#F7F7F7" transform="translate(0,0)"/>
<path d="" fill="#F9F9F9" transform="translate(0,0)"/>
<path d="" fill="#F9F9F9" transform="translate(0,0)"/>
<path d="" fill="#C6C6C6" transform="translate(0,0)"/>
<path d="" fill="#C9C9C9" transform="translate(0,0)"/>
<path d="" fill="#DBDBDB" transform="translate(0,0)"/>
<path d="" fill="#CFCFCF" transform="translate(0,0)"/>
<path d="" fill="#DFDFDF" transform="translate(0,0)"/>
<path d="" fill="#FDFDFD" transform="translate(0,0)"/>
<path d="" fill="#D1D1D1" transform="translate(0,0)"/>
<path d="" fill="#D2D2D2" transform="translate(0,0)"/>
<path d="" fill="#E4E4E4" transform="translate(0,0)"/>
<path d="" fill="#D2D2D2" transform="translate(0,0)"/>
<path d="" fill="#E5E5E5" transform="translate(0,0)"/>
<path d="" fill="#E6E6E6" transform="translate(0,0)"/>
<path d="" fill="#FFFFFF" transform="translate(0,0)"/>
<path d="" fill="#E7E7E7" transform="translate(0,0)"/>
<path d="" fill="#E7E7E7" transform="translate(0,0)"/>
<path d="" fill="#D4D4D4" transform="translate(0,0)"/>
<path d="" fill="#EAEAEA" transform="translate(0,0)"/>
<path d="" fill="#FEFEFE" transform="translate(0,0)"/>
<path d="" fill="#EAEAEA" transform="translate(0,0)"/>
<path d="" fill="#DBDBDB" transform="translate(0,0)"/>
<path d="" fill="#E0E0E0" transform="translate(0,0)"/>
<path d="" fill="#E8E8E8" transform="translate(0,0)"/>
<path d="" fill="#EFEFEF" transform="translate(0,0)"/>
<path d="" fill="#EDEDED" transform="translate(0,0)"/>
<path d="" fill="#F0F0F0" transform="translate(0,0)"/>
<path d="" fill="#EEEEEE" transform="translate(0,0)"/>
<path d="" fill="#F0F0F0" transform="translate(0,0)"/>
<path d="" fill="#FFFFFF" transform="translate(0,0)"/>
<path d="" fill="#F2F2F2" transform="translate(0,0)"/>
<path d="" fill="#FFFFFF" transform="translate(0,0)"/>
<path d="" fill="#F2F2F2" transform="translate(0,0)"/>
<path d="" fill="#FEFEFE" transform="translate(0,0)"/>
<path d="" fill="#F5F5F5" transform="translate(0,0)"/>
<path d="" fill="#F8F8F8" transform="translate(0,0)"/>
<path d="" fill="#FEFEFE" transform="translate(0,0)"/>
<path d="" fill="#F8F8F8" transform="translate(0,0)"/>
<path d="" fill="#FFFFFF" transform="translate(0,0)"/>
<path d="" fill="#FEFEFE" transform="translate(0,0)"/>
<path d="" fill="#FAFAFA" transform="translate(0,0)"/>
<path d="" fill="#FFFFFF" transform="translate(0,0)"/>
<path d="" fill="#FFFFFF" transform="translate(0,0)"/>
<path d="" fill="#FEFEFE" transform="translate(0,0)"/>
<path d="" fill="#FFFFFF" transform="translate(0,0)"/>
<path d="" fill="#FEFEFE" transform="translate(0,0)"/>
<path d="" fill="#FFFFFF" transform="translate(0,0)"/>
<path d="" fill="#FEFEFE" transform="translate(0,0)"/>
<path d="" fill="#FFFFFF" transform="translate(0,0)"/>
<path d="" fill="#FFFFFF" transform="translate(0,0)"/>
<path d="" fill="#FFFFFF" transform="translate(0,0)"/>
<path d="" fill="#FFFFFF" transform="translate(0,0)"/>
<path d="" fill="#FFFFFF" transform="translate(0,0)"/>
<path d="" fill="#FFFFFF" transform="translate(0,0)"/>
<path d="" fill="#FFFFFF" transform="translate(0,0)"/>
<path d="" fill="#FFFFFF" transform="translate(0,0)"/>
<path d="" fill="#FEFEFE" transform="translate(0,0)"/>
<path d="" fill="#FFFFFF" transform="translate(0,0)"/>
<path d="" fill="#FFFFFF" transform="translate(0,0)"/>
<path d="" fill="#FFFFFF" transform="translate(0,0)"/>
<path d="" fill="#FFFFFF" transform="translate(0,0)"/>
<path d="" fill="#FFFFFF" transform="translate(0,0)"/>
<path d="" fill="#FFFFFF" transform="translate(0,0)"/>
<path d="" fill="#FFFFFF" transform="translate(0,0)"/>
<path d="" fill="#FFFFFF" transform="translate(0,0)"/>
<path d="" fill="#FFFFFF" transform="translate(0,0)"/>
<path d="" fill="#FFFFFF" transform="translate(0,0)"/>
<path d="" fill="#FFFFFF" transform="translate(0,0)"/>
<path d="" fill="#FFFFFF" transform="translate(0,0)"/>
<path d="" fill="#FFFFFF" transform="translate(0,0)"/>
<path d="" fill="#FFFFFF" transform="translate(0,0)"/>
<path d="" fill="#FEFEFE" transform="translate(0,0)"/>
<path d="" fill="#FEFEFE" transform="translate(0,0)"/>
<path d="" fill="#FEFEFE" transform="translate(0,0)"/>
<path d="" fill="#FEFEFE" transform="translate(0,0)"/>
<path d="" fill="#FFFFFF" transform="translate(0,0)"/>
<path d="" fill="#FEFEFE" transform="translate(0,0)"/>
<path d="" fill="#FDFDFD" transform="translate(0,0)"/>
<path d="" fill="#FFFFFF" transform="translate(0,0)"/>
<path d="" fill="#FEFEFE" transform="translate(0,0)"/>
<path d="" fill="#FEFEFE" transform="translate(0,0)"/>
<path d="" fill="#FFFFFF" transform="translate(0,0)"/>
<path d="" fill="#FFFFFF" transform="translate(0,0)"/>
<path d="" fill="#FEFEFE" transform="translate(0,0)"/>
<path d="" fill="#FFFFFF" transform="translate(0,0)"/>
<path d="" fill="#FEFEFE" transform="translate(0,0)"/>
<path d="" fill="#FEFEFE" transform="translate(0,0)"/>
<path d="" fill="#FEFEFE" transform="translate(0,0)"/>
<path d="" fill="#FFFFFF" transform="translate(0,0)"/>
<path d="" fill="#FFFFFF" transform="translate(0,0)"/>
<path d="" fill="#FFFFFF" transform="translate(0,0)"/>
<path d="" fill="#FFFFFF" transform="translate(0,0)"/>
<path d="" fill="#FFFFFF" transform="translate(0,0)"/>
<path d="" fill="#FFFFFF" transform="translate(0,0)"/>
<path d="" fill="#FEFEFE" transform="translate(0,0)"/>
<path d="" fill="#FEFEFE" transform="translate(0,0)"/>
<path d="" fill="#FFFFFF" transform="translate(0,0)"/>
<path d="" fill="#FFFFFF" transform="translate(0,0)"/>
<path d="" fill="#FFFFFF" transform="translate(0,0)"/>
<path d="" fill="#FEFEFE" transform="translate(0,0)"/>
<path d="" fill="#FFFFFF" transform="translate(0,0)"/>
<path d="" fill="#FFFFFF" transform="translate(0,0)"/>
<path d="" fill="#FFFFFF" transform="translate(0,0)"/>
<path d="" fill="#FFFFFF" transform="translate(0,0)"/>
<path d="" fill="#FFFFFF" transform="translate(0,0)"/>
<path d="" fill="#FFFFFF" transform="translate(0,0)"/>
<path d="" fill="#FFFFFF" transform="translate(0,0)"/>
<path d="" fill="#FFFFFF" transform="translate(0,0)"/>
<path d="" fill="#FFFFFF" transform="translate(0,0)"/>
<path d="" fill="#FFFFFF" transform="translate(0,0)"/>
<path d="" fill="#FFFFFF" transform="translate(0,0)"/>
<path d="" fill="#FFFFFF" transform="translate(0,0)"/>
<path d="" fill="#FFFFFF" transform="translate(0,0)"/>
<path d="" fill="#FFFFFF" transform="translate(0,0)"/>
<path d="" fill="#FFFFFF" transform="translate(0,0)"/>
<path d="" fill="#FFFFFF" transform="translate(0,0)"/>
<path d="" fill="#FFFFFF" transform="translate(0,0)"/>
<path d="" fill="#FFFFFF" transform="translate(0,0)"/>
<path d="" fill="#FEFEFE" transform="translate(0,0)"/>
<path d="" fill="#FEFEFE" transform="translate(0,0)"/>
<path d="" fill="#FEFEFE" transform="translate(0,0)"/>
<path d="" fill="#FFFFFF" transform="translate(0,0)"/>
<path d="" fill="#FFFFFF" transform="translate(0,0)"/>
<path d="" fill="#FFFFFF" transform="translate(0,0)"/>
<path d="" fill="#FEFEFE" transform="translate(0,0)"/>
<path d="" fill="#FFFFFF" transform="translate(0,0)"/>
<path d="" fill="#FFFFFF" transform="translate(0,0)"/>
<path d="" fill="#FFFFFF" transform="translate(0,0)"/>
<path d="" fill="#FFFFFF" transform="translate(0,0)"/>
<path d="" fill="#FFFFFF" transform="translate(0,0)"/>
<path d="" fill="#FFFFFF" transform="translate(0,0)"/>
<path d="" fill="#FFFFFF" transform="translate(0,0)"/>
<path d="" fill="#FFFFFF" transform="translate(0,0)"/>
<path d="" fill="#FFFFFF" transform="translate(0,0)"/>
<path d="" fill="#FFFFFF" transform="translate(0,0)"/>
<path d="" fill="#FFFFFF" transform="translate(0,0)"/>
<path d="" fill="#FFFFFF" transform="translate(0,0)"/>
<path d="" fill="#FFFFFF" transform="translate(0,0)"/>
<path d="" fill="#FFFFFF" transform="translate(0,0)"/>
<path d="" fill="#FFFFFF" transform="translate(0,0)"/>
<path d="" fill="#FFFFFF" transform="translate(0,0)"/>
<path d="" fill="#FFFFFF" transform="translate(0,0)"/>
<path d="" fill="#FEFEFE" transform="translate(0,0)"/>
<path d="" fill="#FFFFFF" transform="translate(0,0)"/>
<path d="" fill="#FFFFFF" transform="translate(0,0)"/>
<path d="" fill="#FFFFFF" transform="translate(0,0)"/>
<path d="" fill="#FFFFFF" transform="translate(0,0)"/>
<path d="" fill="#FFFFFF" transform="translate(0,0)"/>
<path d="" fill="#FEFEFE" transform="translate(0,0)"/>
<path d="" fill="#FFFFFF" transform="translate(0,0)"/>
<path d="" fill="#FEFEFE" transform="translate(0,0)"/>
<path d="" fill="#FFFFFF" transform="translate(0,0)"/>
<path d="" fill="#FFFFFF" transform="translate(0,0)"/>
<path d="" fill="#FEFEFE" transform="translate(0,0)"/>
<path d="" fill="#FFFFFF" transform="translate(0,0)"/>
<path d="" fill="#FFFFFF" transform="translate(0,0)"/>
<path d="" fill="#FFFFFF" transform="translate(0,0)"/>
<path d="" fill="#FFFFFF" transform="translate(0,0)"/>
<path d="" fill="#FFFFFF" transform="translate(0,0)"/>
<path d="" fill="#FFFFFF" transform="translate(0,0)"/>
<path d="" fill="#FFFFFF" transform="translate(0,0)"/>
<path d="" fill="#FFFFFF" transform="translate(0,0)"/>
<path d="" fill="#FFFFFF" transform="translate(0,0)"/>
<path d="" fill="#FFFFFF" transform="translate(0,0)"/>
<path d="" fill="#FFFFFF" transform="translate(0,0)"/>
<path d="" fill="#FFFFFF" transform="translate(0,0)"/>
<path d="" fill="#FFFFFF" transform="translate(0,0)"/>
<path d="" fill="#FFFFFF" transform="translate(0,0)"/>
<path d="" fill="#FFFFFF" transform="translate(0,0)"/>
<path d="" fill="#FFFFFF" transform="translate(0,0)"/>
</svg>
